<svg width="284" height="284" viewBox="0 0 284 284" fill="none" xmlns="http://www.w3.org/2000/svg">
<circle cx="142" cy="142" r="142" fill="#F2F5F3"/>
<circle cx="142" cy="142" r="125" fill="#E4EBE6"/>
<path d="M145.681 69.6855C163.676 67.2013 181.997 71.3094 196.055 84.6273C210.042 97.8778 218.953 119.433 219.996 150.178L220 150.28V150.383C220 189.424 190.355 212.878 160.749 214.759C145.9 215.703 130.768 211.257 119.333 200.424C107.852 189.547 100.714 172.825 100.714 150.383V150.248L100.72 150.113C101.167 140.135 105.973 130.67 112.52 123.29C119.071 115.903 127.832 110.065 137.024 107.7C146.346 105.302 156.529 106.442 164.561 113.796C172.369 120.944 177.053 132.992 177.995 150.05L178.012 150.353L177.998 150.656C177.559 160.339 174.205 167.767 168.746 172.431C163.304 177.079 156.392 178.418 150.179 176.999C143.985 175.585 138.393 171.409 135.545 165.04C132.668 158.603 132.905 150.683 136.807 142.237C138.22 139.179 141.863 137.837 144.945 139.238C148.027 140.64 149.38 144.254 147.968 147.312C145.207 153.288 145.607 157.503 146.768 160.101C147.959 162.766 150.283 164.524 152.933 165.129C155.563 165.73 158.424 165.174 160.735 163.2C162.996 161.269 165.34 157.428 165.717 150.41C164.824 135.102 160.694 126.83 156.235 122.747C151.971 118.843 146.402 117.871 140.105 119.491C133.677 121.144 126.952 125.456 121.737 131.336C116.551 137.183 113.32 144.051 112.992 150.524C113.021 170.27 119.25 183.503 127.812 191.615C136.441 199.789 148.062 203.36 159.965 202.604C183.841 201.087 207.677 182.309 207.722 150.473C206.728 121.793 198.485 103.771 187.576 93.4364C176.724 83.1554 162.388 79.6768 147.373 81.7497C116.815 85.968 85.5001 112.895 81.041 147.548C80.6116 150.885 77.5375 153.244 74.1745 152.818C70.8116 152.393 68.4333 149.343 68.8626 146.006C74.0949 105.343 110.215 74.5813 145.681 69.6855Z" fill="#A8BFAF"/>
<path d="M84.3061 179.249C84.3061 184.581 79.9843 188.902 74.653 188.902C69.3218 188.902 65 184.581 65 179.249C65 173.918 69.3218 169.596 74.653 169.596C79.9843 169.596 84.3061 173.918 84.3061 179.249Z" fill="#A8BFAF"/>
</svg>
