<svg width="120" height="120" viewBox="0 0 120 120" fill="none" xmlns="http://www.w3.org/2000/svg">
<circle cx="60" cy="60" r="60" fill="#F4EDD9"/>
<path d="M59.0964 26.579C67.3357 25.4326 75.783 27.3249 82.2732 33.5224C88.7228 39.6812 92.753 49.6248 93.2243 63.623L93.2263 63.6816V63.7412C93.2262 81.8009 79.5991 92.6715 65.9948 93.5429C59.1659 93.9803 52.1761 91.9201 46.8845 86.8671C41.5665 81.789 38.3162 74.0302 38.3161 63.7412V63.663L38.3191 63.5859C38.5286 58.869 40.7767 54.4406 43.7888 51.0175C46.8037 47.5911 50.8511 44.8619 55.1355 43.7509C59.4945 42.6206 64.3361 43.1463 68.1628 46.6777C71.8615 50.091 73.9918 55.756 74.4187 63.5497L74.4275 63.7236L74.4196 63.8984C74.2165 68.4205 72.6552 71.9894 70.0173 74.2607C67.3894 76.5233 64.0467 77.1759 61.0456 76.4853C58.0554 75.7971 55.3516 73.763 53.9753 70.6601C52.582 67.5186 52.7269 63.7158 54.5437 59.7519C55.3491 57.9947 57.4271 57.2229 59.1843 58.0283C60.9412 58.8338 61.7122 60.9109 60.9069 62.6679C59.7407 65.2125 59.9588 66.8866 60.3737 67.8222C60.8058 68.7962 61.6466 69.4399 62.6159 69.663C63.5743 69.8835 64.607 69.6817 65.4499 68.956C66.2683 68.2513 67.2503 66.739 67.4167 63.746C67.0163 56.9681 65.2059 53.4744 63.4157 51.8222C61.7372 50.2732 59.5263 49.8443 56.8923 50.5273C54.1836 51.2297 51.2969 53.0808 49.0437 55.6415C46.8058 58.1849 45.456 61.1241 45.3161 63.83C45.3346 72.5645 48.0658 78.3166 51.7185 81.8046C55.41 85.3297 60.3989 86.8873 65.5476 86.5576C75.8847 85.8953 86.1982 77.7129 86.2253 63.7958C85.7829 50.9832 82.1346 43.0686 77.4392 38.5849C72.7767 34.1327 66.6017 32.6017 60.0612 33.5117C46.6805 35.3735 32.9539 47.2889 31.0046 62.5566C30.7598 64.474 29.007 65.8307 27.0896 65.5859C25.1723 65.3411 23.8166 63.5881 24.0612 61.6708C26.4512 42.9495 42.9174 28.8302 59.0964 26.579Z" fill="#769382"/>
<path d="M31.7548 76.7678C31.7548 79.1642 29.8121 81.1068 27.4157 81.1068C25.0193 81.1068 23.0767 79.1642 23.0767 76.7678C23.0767 74.3714 25.0193 72.4287 27.4157 72.4287C29.8121 72.4287 31.7548 74.3714 31.7548 76.7678Z" fill="#769382"/>
<path d="M30.0767 76.7676C30.0766 75.2981 28.8851 74.1064 27.4155 74.1064C25.9461 74.1065 24.7545 75.2981 24.7544 76.7676C24.7544 78.2371 25.946 79.4286 27.4155 79.4287V81.1064C25.0192 81.1063 23.0767 79.1639 23.0767 76.7676C23.0768 74.3713 25.0193 72.4288 27.4155 72.4287C29.8119 72.4287 31.7543 74.3713 31.7544 76.7676C31.7544 79.164 29.8119 81.1064 27.4155 81.1064V79.4287C28.8851 79.4287 30.0767 78.2372 30.0767 76.7676Z" fill="#769382"/>
</svg>
