<svg width="400" height="78" viewBox="0 0 400 78" fill="none" xmlns="http://www.w3.org/2000/svg">
<path d="M41.3933 0.366453C50.7925 -0.961636 60.4011 1.23253 67.7794 8.38726C75.1152 15.5008 79.7364 27.0215 80.2771 43.3294L80.279 43.392V43.4547C80.279 64.3555 64.7592 76.9261 49.2632 77.934C41.4871 78.4397 33.543 76.0572 27.533 70.2294C21.4954 64.3748 17.7787 55.4066 17.7787 43.4547V43.372L17.7823 43.2895C18.019 37.8793 20.5611 32.7789 23.9901 28.8216C27.4221 24.8607 32.0222 21.7162 36.8736 20.4387C41.8032 19.1407 47.2413 19.7495 51.5359 23.774C55.6964 27.673 58.1331 34.1848 58.622 43.2511L58.6321 43.4363L58.6238 43.6217C58.3933 48.8345 56.624 52.9008 53.6805 55.4745C50.7474 58.0392 47.0187 58.7787 43.6693 57.9958C40.3313 57.2156 37.3149 54.9111 35.7794 51.3953C34.2259 47.8386 34.3744 43.5043 36.4326 38.9442C37.2761 37.0756 39.4515 36.2551 41.2917 37.1115C43.1319 37.968 43.94 40.1773 43.0966 42.046C41.7197 45.0966 41.9517 47.1663 42.4805 48.3771C43.0273 49.6289 44.0918 50.4557 45.3135 50.7412C46.5237 51.0241 47.8335 50.7636 48.8973 49.8334C49.9334 48.9275 51.0976 47.0519 51.2914 43.4692C50.8312 35.4755 48.7265 31.2707 46.5645 29.2446C44.5196 27.3283 41.8367 26.822 38.7136 27.6444C35.5122 28.4874 32.1279 30.6989 29.4936 33.7391C26.8771 36.7587 25.2756 40.2725 25.1097 43.5414C25.1274 53.845 28.301 60.6812 32.5957 64.8456C36.93 69.0485 42.7783 70.8964 48.7946 70.5051C60.8698 69.7197 72.9209 60.0074 72.9481 43.5106C72.4372 28.4647 68.215 19.1027 62.7167 13.771C57.2524 8.4723 50.0237 6.66281 42.4036 7.73953C26.8494 9.93731 10.9004 23.987 8.633 42.0233C8.37666 44.0623 6.54112 45.5044 4.53316 45.2441C2.52516 44.9838 1.10511 43.1197 1.36145 41.0806C4.09058 19.3717 22.9088 2.97829 41.3933 0.366453Z" fill="#1A1A1A"/>
<path d="M10.0701 58.6882C10.0701 61.469 7.81582 63.7233 5.03504 63.7233C2.25426 63.7233 0 61.469 0 58.6882C0 55.9075 2.25426 53.6532 5.03504 53.6532C7.81582 53.6532 10.0701 55.9075 10.0701 58.6882Z" fill="#1A1A1A"/>
<path d="M370.494 70.2529C366.829 70.2529 363.927 69.0122 361.789 66.5308C359.712 64.0495 358.673 60.6686 358.673 56.3882C358.673 53.2244 359.162 50.1227 360.139 47.083C361.178 44.0433 362.614 41.3138 364.446 38.8945C366.279 36.4751 368.417 34.5521 370.86 33.1253C373.304 31.6985 375.961 30.9851 378.833 30.9851C380.665 30.9851 382.284 31.2642 383.689 31.8225C385.155 32.3809 386.438 33.0943 387.538 33.9627C387.477 29.7444 387.263 25.9603 386.896 22.6104C386.53 19.2606 385.644 16.1588 384.239 13.3053C383.995 12.809 383.781 12.3747 383.597 12.0025C383.475 11.5683 383.414 11.1651 383.414 10.7929C383.414 9.92437 383.75 9.11793 384.422 8.37351C385.155 7.6291 386.041 7.00875 387.079 6.51248C388.118 6.0162 389.095 5.76807 390.012 5.76807C391.661 5.76807 392.883 6.51248 393.677 8.0013C394.532 9.4281 395.082 11.4132 395.326 13.9566C395.571 16.438 395.693 19.2916 395.693 22.5174C395.693 27.232 395.479 31.4814 395.052 35.2655C394.624 39.0496 394.227 42.3684 393.86 45.222C393.616 47.083 393.402 48.6959 393.219 50.0607C393.036 51.4254 392.944 52.5421 392.944 53.4105C392.944 57.815 394.807 60.4204 398.534 61.2269C399.511 61.413 400 62.0644 400 63.181C400 63.8634 399.786 64.7318 399.358 65.7864C398.992 66.841 398.289 67.8025 397.251 68.671C396.212 69.4775 394.716 69.8807 392.761 69.8807C390.134 69.8807 388.362 68.9812 387.446 67.1822C386.53 65.3832 386.072 62.6537 386.072 58.9936C384.361 62.1574 382.192 64.8249 379.566 66.9961C376.939 69.1673 373.915 70.2529 370.494 70.2529ZM373.335 60.2964C375.045 60.2964 376.756 59.7381 378.466 58.6214C380.176 57.5048 381.704 55.985 383.048 54.0619C383.842 52.8833 384.544 51.5495 385.155 50.0607C385.827 48.5098 386.438 46.959 386.988 45.4081C383.872 42.5545 380.421 41.1277 376.633 41.1277C373.335 41.1277 370.708 42.1513 368.753 44.1984C366.798 46.1835 365.821 48.6649 365.821 51.6426C365.821 54.186 366.554 56.2641 368.02 57.877C369.486 59.4899 371.258 60.2964 373.335 60.2964Z" fill="#1A1A1A"/>
<path d="M315.043 70.0668C312.844 70.0668 311.867 69.3224 312.111 67.8336C312.783 65.1661 313.333 62.4676 313.761 59.7381C314.249 56.9465 314.494 54.2791 314.494 51.7356C314.494 48.4478 314.28 46.0595 313.852 44.5707C313.486 43.0198 312.966 41.9652 312.294 41.4069C311.623 40.7866 310.798 40.3213 309.82 40.0111C309.393 39.825 308.996 39.5769 308.629 39.2667C308.324 38.9565 308.171 38.5223 308.171 37.964C308.171 37.0955 308.507 36.134 309.179 35.0794C309.851 34.0248 310.798 33.1253 312.02 32.3809C313.302 31.5744 314.738 31.1712 316.326 31.1712C318.403 31.1712 319.839 31.9156 320.633 33.4045C321.427 34.8312 321.824 36.7233 321.824 39.0806C321.824 40.6315 321.672 42.3684 321.366 44.2915C321.061 46.2146 320.755 47.9515 320.45 49.5024L320.725 49.5954C321.946 46.3076 323.413 43.2679 325.123 40.4764C326.895 37.6228 328.941 35.3275 331.262 33.5906C333.584 31.8536 336.272 30.9851 339.326 30.9851C342.564 30.9851 345.038 31.9777 346.748 33.9628C348.459 35.9479 349.314 38.4292 349.314 41.4069C349.314 42.6476 349.161 43.8262 348.856 44.9429C348.612 46.0595 348.337 47.1451 348.031 48.1997C347.726 49.1922 347.451 50.2158 347.207 51.2704C347.023 52.325 346.932 53.3796 346.932 54.4341C346.932 57.9701 348.581 60.3584 351.88 61.5991C352.735 61.9713 353.163 62.5296 353.163 63.2741C353.163 63.8324 352.979 64.6388 352.613 65.6934C352.246 66.748 351.574 67.7405 350.597 68.671C349.62 69.5395 348.184 69.9738 346.29 69.9738C343.847 69.9738 341.953 69.1053 340.609 67.3683C339.265 65.5693 338.593 63.3051 338.593 60.5756C338.593 59.0247 338.746 57.4738 339.051 55.923C339.418 54.3101 339.784 52.8212 340.151 51.4565C340.395 50.4019 340.609 49.3783 340.792 48.3858C341.037 47.3312 341.159 46.4007 341.159 45.5942C341.159 42.7406 339.693 41.3138 336.76 41.3138C334.256 41.3138 332.057 42.2754 330.163 44.1985C328.269 46.0595 326.65 48.4168 325.306 51.2704C323.962 54.124 322.863 57.0086 322.008 59.9242V62.1574C322.008 64.4527 321.366 66.3448 320.083 67.8336C318.862 69.3224 317.182 70.0668 315.043 70.0668Z" fill="#1A1A1A"/>
<path d="M294.878 22.7965C293.168 22.7345 291.794 22.2072 290.755 21.2146C289.717 20.2221 289.197 18.8263 289.197 17.0273C289.258 15.1042 289.9 13.5534 291.122 12.3747C292.343 11.134 293.901 10.5447 295.795 10.6067C297.566 10.6688 298.941 11.1961 299.918 12.1886C300.957 13.1812 301.446 14.5769 301.384 16.3759C301.323 18.237 300.712 19.7878 299.552 21.0285C298.391 22.2072 296.833 22.7965 294.878 22.7965ZM294.97 69.9737C293.137 69.9737 291.702 69.4774 290.663 68.4849C289.625 67.4303 289.106 65.6623 289.106 63.1809C289.106 61.7541 289.228 60.3584 289.472 58.9936C289.778 57.6289 290.114 56.2951 290.48 54.9924C290.908 53.6276 291.244 52.2319 291.488 50.8051C291.794 49.3783 291.946 47.8584 291.946 46.2455C291.946 45.1289 291.794 44.0743 291.488 43.0818C291.183 42.0272 290.511 41.2518 289.472 40.7555C288.678 40.3212 287.975 39.887 287.365 39.4528C286.815 38.9565 286.54 38.3361 286.54 37.5917C286.54 36.7232 286.937 35.7927 287.731 34.8002C288.525 33.8076 289.564 32.9702 290.847 32.2878C292.191 31.5434 293.565 31.1712 294.97 31.1712C296.497 31.1712 297.597 31.5744 298.269 32.3808C299.002 33.1873 299.491 34.2108 299.735 35.4515C299.979 36.6922 300.102 37.9639 300.102 39.2667C300.102 41.2518 299.949 43.2058 299.643 45.1289C299.338 46.9899 299.033 48.7269 298.727 50.3398C298.483 51.5185 298.299 52.6041 298.177 53.5966C298.055 54.5892 297.994 55.5197 297.994 56.3882C297.994 57.939 298.361 59.1177 299.094 59.9241C299.827 60.6685 300.865 61.3819 302.209 62.0643C302.759 62.3745 303.034 62.8398 303.034 63.4601C303.034 63.9564 302.789 64.7318 302.301 65.7864C301.812 66.841 300.957 67.8025 299.735 68.671C298.574 69.5395 296.986 69.9737 294.97 69.9737Z" fill="#1A1A1A"/>
<path d="M213.263 69.974C212.102 69.974 211.308 69.6328 210.88 68.9504C210.453 68.268 210.239 67.5236 210.239 66.7171C210.239 62.871 210.605 58.4666 211.338 53.5038C212.133 48.541 213.079 43.6093 214.179 38.7086C215.156 34.5523 216.225 30.6751 217.386 27.0771C218.608 23.4791 219.677 20.5325 220.593 18.2372C221.937 15.0114 223.464 12.5611 225.175 10.8861C226.946 9.14916 228.993 8.28067 231.314 8.28067C233.025 8.28067 234.552 8.87 235.896 10.0487C237.24 11.1653 238.034 13.2124 238.278 16.1901C238.645 19.7881 239.073 23.4171 239.561 27.0771C240.05 30.7372 240.6 34.087 241.211 37.1267C241.822 40.1044 242.463 42.3996 243.135 44.0125C243.685 45.4393 244.479 46.1527 245.517 46.1527C246.678 46.1527 247.686 45.4083 248.541 43.9195C249.335 42.5547 250.191 40.6937 251.107 38.3364C252.023 35.9791 252.909 33.4977 253.764 30.8922C254.681 28.2248 255.475 25.8054 256.147 23.6342C256.941 21.2769 257.827 18.9196 258.804 16.5623C259.843 14.1429 261.156 12.1578 262.744 10.607C264.333 8.99407 266.318 8.18762 268.7 8.18762C270.9 8.18762 272.457 8.96305 273.374 10.5139C274.351 12.0027 274.84 14.3911 274.84 17.6789C274.84 20.2223 274.748 22.8898 274.565 25.6813C274.504 27.2942 274.412 28.9692 274.29 30.7061C274.229 32.3811 274.198 34.118 274.198 35.917C274.198 38.7086 274.321 41.6552 274.565 44.7569C274.87 47.8587 275.42 50.7743 276.214 53.5038C277.07 56.2333 278.322 58.5286 279.971 60.3896C280.46 60.8239 280.888 61.3201 281.254 61.8785C281.682 62.4368 281.896 63.0571 281.896 63.7395C281.896 65.2903 281.071 66.7171 279.421 68.0199C277.833 69.2606 276.001 69.8809 273.923 69.8809C272.03 69.8809 270.625 69.2606 269.708 68.0199C268.792 66.7792 268.059 65.1042 267.509 62.9951C266.898 60.3896 266.471 57.5981 266.226 54.6204C265.982 51.6428 265.86 48.7582 265.86 45.9666C265.86 41.5001 266.013 37.4059 266.318 33.6838C266.685 29.8997 266.868 27.1081 266.868 25.3091C266.868 24.3166 266.776 23.6032 266.593 23.1689C266.41 22.6727 265.951 22.4245 265.218 22.4245C264.363 22.4245 263.63 22.8278 263.019 23.6342C262.469 24.3786 262.011 25.4332 261.645 26.798C260.851 29.4034 259.965 32.195 258.987 35.1726C258.01 38.1503 256.971 41.0659 255.872 43.9195C254.833 46.7731 253.703 49.3165 252.481 51.5497C251.076 54.1552 249.549 55.9231 247.9 56.8537C246.312 57.7221 244.693 58.1564 243.043 58.1564C240.478 58.1564 238.523 57.3499 237.179 55.737C235.896 54.0621 234.949 52.2321 234.338 50.247C233.544 47.5795 232.811 44.1056 232.139 39.8252C231.467 35.4828 230.978 30.6131 230.673 25.2161C230.551 22.9208 229.818 21.7732 228.474 21.7732C227.008 21.7732 225.847 22.8898 224.992 25.123C224.259 27.3563 223.556 29.9927 222.884 33.0324C222.212 36.0101 221.662 39.1428 221.235 42.4307C220.868 45.6564 220.685 48.8512 220.685 52.015C220.685 54.6825 220.777 57.0087 220.96 58.9939C221.204 60.979 221.326 62.84 221.326 64.577C221.326 65.8176 220.838 66.8412 219.86 67.6477C218.944 68.4541 217.844 69.0434 216.561 69.4156C215.279 69.7878 214.179 69.974 213.263 69.974Z" fill="#1A1A1A"/>
<path d="M194.779 44.8497C193.069 44.8497 191.664 44.2914 190.564 43.1748C189.526 42.0581 189.007 40.6313 189.007 38.8944C189.007 37.0954 189.587 35.6066 190.748 34.4279C191.969 33.2492 193.466 32.6599 195.238 32.6599C196.948 32.6599 198.323 33.1872 199.361 34.2418C200.4 35.2964 200.919 36.6922 200.919 38.4291C200.919 40.2902 200.339 41.841 199.178 43.0817C198.078 44.2604 196.612 44.8497 194.779 44.8497ZM193.222 69.8806C191.511 69.8806 190.106 69.3223 189.007 68.2057C187.968 67.089 187.449 65.6623 187.449 63.9253C187.449 62.1263 188.029 60.6375 189.19 59.4588C190.351 58.2802 191.847 57.6908 193.68 57.6908C195.39 57.6908 196.765 58.2181 197.803 59.2727C198.842 60.3273 199.361 61.7231 199.361 63.46C199.361 65.3211 198.781 66.8719 197.62 68.1126C196.459 69.2913 194.993 69.8806 193.222 69.8806Z" fill="#1A1A1A"/>
<path d="M160.183 70.2529C155.54 70.2529 151.905 68.9192 149.279 66.2517C146.713 63.5222 145.43 59.7381 145.43 54.8994C145.43 50.4949 146.377 46.4937 148.271 42.8957C150.164 39.2977 152.699 36.4441 155.876 34.3349C159.114 32.1637 162.657 31.0781 166.505 31.0781C170.171 31.0781 173.103 32.0086 175.302 33.8697C177.501 35.6687 178.601 38.088 178.601 41.1277C178.601 43.5471 177.868 45.7803 176.402 47.8274C174.936 49.8746 172.981 51.5185 170.537 52.7592C168.094 53.9378 165.375 54.5272 162.382 54.5272C158.717 54.5272 155.723 53.6897 153.402 52.0148C153.463 54.8683 154.41 57.1636 156.243 58.9006C158.136 60.6376 160.549 61.506 163.482 61.506C165.253 61.506 167.055 61.1959 168.888 60.5755C170.782 59.8931 172.4 58.9936 173.744 57.877C174.6 57.1326 175.394 56.7604 176.127 56.7604C176.738 56.7604 177.226 56.9775 177.593 57.4118C178.021 57.784 178.234 58.2802 178.234 58.9006C178.234 60.2653 177.074 62.0643 174.752 64.2976C170.659 68.2678 165.803 70.2529 160.183 70.2529ZM161.557 48.3857C163.756 48.3857 165.589 47.9205 167.055 46.99C168.521 46.0595 169.254 44.8808 169.254 43.454C169.254 42.2753 168.766 41.3759 167.788 40.7555C166.811 40.0731 165.467 39.7319 163.756 39.7319C161.496 39.7319 159.511 40.3523 157.8 41.593C156.151 42.7716 154.96 44.4466 154.227 46.6178C155.082 47.1761 156.182 47.6103 157.525 47.9205C158.869 48.2307 160.213 48.3857 161.557 48.3857Z" fill="#1A1A1A"/>
<path d="M102.376 69.974C101.643 69.974 100.879 69.8499 100.085 69.6018C99.352 69.3536 98.7411 68.7643 98.2524 67.8338C97.7637 66.9033 97.5193 65.4765 97.5193 63.5534C97.5193 62.3127 97.611 60.7308 97.7942 58.8078C98.0386 56.8227 98.283 54.8996 98.5273 53.0386C99.016 49.9368 99.4436 46.5249 99.8102 42.8029C100.238 39.0808 100.452 35.3897 100.452 31.7297C100.452 30.427 100.421 29.0622 100.36 27.6354C100.299 26.2086 100.177 24.8439 99.9934 23.5412C99.6269 23.7273 99.1993 23.9134 98.7106 24.0995C98.283 24.2235 97.9164 24.2856 97.611 24.2856C97.0001 24.2856 96.5725 23.9754 96.3281 23.3551C96.1449 22.6727 96.0532 21.8972 96.0532 21.0288C96.0532 19.0437 96.5114 17.4618 97.4277 16.2831C98.4051 15.0424 99.8407 13.9258 101.734 12.9333C104.239 11.5065 106.896 10.4829 109.706 9.86256C112.578 9.18018 115.296 8.83899 117.862 8.83899C121.649 8.83899 125.009 9.52137 127.941 10.8861C130.874 12.2509 133.164 14.174 134.814 16.6553C136.463 19.1367 137.288 22.1144 137.288 25.5883C137.288 29.1863 136.433 32.3811 134.722 35.1726C133.073 37.9642 130.935 40.2595 128.308 42.0585C125.742 43.7954 123.115 44.9431 120.428 45.5014C121.405 47.0522 122.443 48.6031 123.543 50.154C124.704 51.7048 125.864 53.1006 127.025 54.3413C130.507 58.0013 134.05 59.8313 137.654 59.8313C138.632 59.8313 139.487 59.7693 140.22 59.6452C140.587 59.5832 140.892 59.7383 141.137 60.1105C141.442 60.4207 141.595 61.072 141.595 62.0646C141.595 63.2432 141.35 64.4529 140.862 65.6936C140.373 66.8722 139.548 67.8648 138.388 68.6712C137.227 69.4777 135.639 69.8809 133.623 69.8809C131.24 69.8809 128.949 69.0745 126.75 67.4616C124.612 65.8487 122.627 63.8015 120.794 61.3202C118.961 58.7767 117.312 56.1093 115.846 53.3177C114.441 50.5262 113.25 47.9517 112.272 45.5944C112.028 44.912 111.814 44.2607 111.631 43.6403C111.448 42.958 111.356 42.3066 111.356 41.6862C111.356 40.6317 111.692 39.7632 112.364 39.0808C112.853 38.5845 113.525 38.2433 114.38 38.0572C115.296 37.8711 116.609 37.7781 118.32 37.7781C121.558 37.7781 124.184 36.8786 126.2 35.0796C128.216 33.2806 129.224 30.9543 129.224 28.1007C129.224 24.999 128.064 22.7347 125.742 21.3079C123.482 19.8811 120.702 19.1677 117.404 19.1677C114.716 19.1677 111.906 19.602 108.973 20.4705C108.79 24.5027 108.363 29.1243 107.691 34.3352C107.324 37.4369 106.988 40.5076 106.683 43.5473C106.438 46.587 106.316 49.3475 106.316 51.8289C106.316 54.0001 106.499 55.9232 106.866 57.5981C107.294 59.211 108.118 60.6068 109.34 61.7854C110.195 62.6539 110.623 63.5844 110.623 64.577C110.623 65.9417 109.859 67.1824 108.332 68.299C106.805 69.4157 104.819 69.974 102.376 69.974Z" fill="#1A1A1A"/>
</svg>
