<?xml version="1.0" standalone="no"?>
<!DOCTYPE svg PUBLIC "-//W3C//DTD SVG 20010904//EN"
 "http://www.w3.org/TR/2001/REC-SVG-20010904/DTD/svg10.dtd">
<svg version="1.0" xmlns="http://www.w3.org/2000/svg"
 width="864.000000pt" height="1102.000000pt" viewBox="0 0 864.000000 1102.000000"
 preserveAspectRatio="xMidYMid meet">

<g transform="translate(0.000000,1102.000000) scale(0.100000,-0.100000)"
fill="#000000" stroke="none">
<path d="M0 5510 l0 -5510 4320 0 4320 0 0 5510 0 5510 -4320 0 -4320 0 0
-5510z m4752 2243 c0 -16 1 -36 0 -45 -2 -21 9 -23 27 -5 11 10 12 7 7 -15 -5
-22 -3 -28 9 -28 9 0 13 -4 10 -10 -3 -5 1 -10 9 -10 20 0 20 -14 0 -45 -9
-14 -12 -25 -6 -25 6 0 12 6 15 13 2 6 8 9 12 5 4 -4 3 -13 -1 -20 -5 -7 -9
-30 -9 -50 -1 -32 2 -38 19 -39 18 -1 19 -2 3 -6 -11 -3 -16 -11 -13 -19 6
-17 -27 -36 -48 -28 -20 8 -21 24 -1 24 8 0 15 5 15 10 0 6 -12 10 -27 10 -26
0 -26 0 -8 20 14 16 16 23 7 32 -8 8 -8 15 -2 23 7 8 5 25 -7 51 -9 21 -18 49
-19 61 -2 11 -12 40 -22 62 -16 33 -17 41 -6 41 8 0 14 5 14 10 0 24 20 7 22
-17z m35 -358 c0 -8 -4 -12 -9 -9 -5 3 -6 10 -3 15 9 13 12 11 12 -6z m77 -27
l6 -23 19 23 c11 12 25 22 31 22 9 0 10 -3 1 -13 -6 -8 -8 -17 -4 -20 3 -4 0
-13 -6 -21 -7 -8 -10 -20 -7 -25 4 -6 -2 -15 -13 -20 -28 -16 -34 -14 -28 9 3
11 4 20 3 20 0 0 -16 -4 -34 -9 -35 -10 -44 5 -19 31 7 7 16 21 20 31 9 24 23
21 31 -5z m121 -47 c-3 -6 -11 -11 -17 -11 -6 0 -6 6 2 15 14 17 26 13 15 -4z
m27 -31 c6 0 8 -3 4 -7 -9 -10 -56 -11 -56 -3 0 13 14 21 28 15 7 -3 19 -5 24
-5z m-672 -35 c0 -10 -86 -59 -107 -61 -35 -4 -28 3 35 35 57 30 72 35 72 26z
m200 -10 c0 -3 -17 -12 -37 -20 -77 -32 -93 -40 -93 -47 0 -4 -6 -5 -14 -2 -8
3 -27 -3 -42 -13 -16 -10 -25 -12 -21 -5 10 15 9 15 -43 -3 -65 -23 -62 -18
19 26 40 22 81 39 91 36 10 -2 42 4 71 14 57 19 69 22 69 14z m49 -19 c-18
-18 -151 -85 -179 -90 l-35 -7 45 28 c51 33 138 72 159 73 8 0 12 -2 10 -4z
m436 -17 c-4 -5 3 -9 15 -9 12 0 18 -4 15 -10 -3 -5 -2 -10 4 -10 11 0 23 -34
25 -70 1 -14 5 -31 9 -37 6 -9 3 -11 -7 -7 -9 3 -16 1 -16 -4 0 -6 8 -13 18
-16 11 -4 25 -18 32 -31 15 -28 30 -33 30 -10 0 8 3 15 7 15 13 0 63 -53 63
-67 0 -7 4 -13 9 -13 5 0 7 -9 4 -19 -3 -11 7 -36 22 -59 15 -23 24 -46 20
-51 -3 -6 -1 -11 5 -11 7 0 9 -7 6 -16 -4 -9 1 -27 9 -40 9 -13 13 -24 9 -24
-4 0 -1 -7 6 -15 6 -8 9 -18 6 -24 -7 -10 43 -112 71 -146 28 -34 63 -84 63
-90 0 -4 15 -30 33 -58 45 -69 58 -105 55 -147 -3 -32 -8 -37 -54 -57 -29 -12
-61 -20 -73 -18 -28 5 -152 -40 -171 -63 -8 -9 -22 -16 -30 -15 -8 2 -36 -16
-62 -39 -47 -44 -51 -51 -66 -158 -6 -37 -11 -46 -30 -48 -12 -2 -35 -10 -50
-18 l-27 -14 32 0 c35 0 51 -16 34 -33 -6 -6 -11 -19 -11 -29 0 -11 -7 -32
-15 -48 -13 -24 -13 -29 0 -34 8 -3 24 -38 35 -78 28 -93 49 -148 49 -126 1 9
6 29 12 45 11 27 12 26 53 -63 28 -59 58 -105 87 -133 37 -37 40 -42 19 -36
-36 10 -61 33 -131 118 -16 20 -16 15 4 -49 25 -81 95 -172 115 -152 14 14 37
17 232 23 204 8 243 13 236 31 -3 8 1 14 11 14 12 0 13 3 4 14 -10 11 -7 19
10 35 13 11 24 20 25 18 5 -5 -33 -153 -49 -190 -18 -42 -64 -90 -105 -110
-15 -7 -28 -18 -28 -25 -3 -25 -4 -27 -13 -14 -7 12 -13 11 -37 -1 -16 -8 -61
-15 -101 -16 -65 -2 -72 0 -66 15 4 11 3 15 -5 10 -6 -3 -13 -2 -17 4 -3 5
-12 10 -18 10 -7 0 -6 -4 3 -10 8 -5 11 -10 6 -10 -5 0 -4 -6 1 -12 6 -7 9
-26 8 -43 -2 -36 10 -55 36 -55 10 0 23 -9 29 -20 13 -25 -5 -27 -38 -4 -20
14 -23 14 -29 -2 -3 -9 0 -29 8 -43 11 -19 24 -27 52 -29 25 -2 37 1 37 9 0
17 38 -25 48 -52 10 -27 -16 -108 -42 -135 -15 -15 -33 -19 -83 -18 -35 0 -63
-4 -63 -8 0 -4 4 -8 9 -8 31 0 6 -109 -50 -222 -16 -32 -29 -65 -29 -75 0 -9
-8 -35 -19 -57 -10 -23 -31 -68 -46 -101 -30 -64 -101 -141 -140 -151 -13 -3
-26 -12 -28 -19 -4 -8 -16 -11 -32 -8 -16 4 -33 -1 -46 -13 -22 -20 -36 -23
-130 -25 -58 -2 -104 10 -119 31 -11 14 -117 90 -127 90 -5 0 -18 9 -28 20
-10 11 -23 20 -30 20 -16 0 -75 54 -75 69 0 7 -4 9 -10 6 -5 -3 -10 -1 -10 5
0 6 -9 30 -20 52 -11 23 -20 49 -20 59 0 9 -9 28 -20 42 -11 14 -21 38 -23 54
-2 16 -7 35 -12 43 -6 10 -4 12 8 7 11 -4 14 -2 10 9 -4 12 -1 13 23 4 16 -6
40 -21 54 -34 14 -12 37 -27 53 -34 15 -7 37 -16 50 -22 36 -16 75 -21 218
-27 106 -4 157 -2 237 12 56 10 102 21 102 25 0 4 13 10 29 13 16 3 47 25 70
49 43 46 51 61 25 51 -12 -4 -9 5 10 35 34 55 33 68 -5 42 -82 -59 -188 -96
-203 -71 -4 5 10 26 30 45 21 20 35 39 31 42 -4 4 -9 -1 -13 -10 -3 -9 -10
-14 -14 -11 -4 3 -10 -1 -13 -9 -5 -11 -90 -40 -122 -41 -5 0 -13 14 -16 30
l-7 30 -1 -32 c-1 -38 -16 -42 -41 -13 -15 18 -19 18 -24 5 -4 -11 -14 -14
-33 -11 -16 2 -32 5 -37 5 -4 1 -6 12 -4 26 4 20 1 25 -15 25 -11 0 -17 3 -14
6 3 4 2 15 -4 25 -9 17 -5 19 40 19 27 0 52 -3 55 -8 5 -8 15 -8 161 2 50 3
104 2 122 -3 28 -8 38 -5 72 19 44 33 91 48 91 31 0 -5 9 -15 20 -21 25 -13
63 -4 53 13 -4 7 2 5 12 -3 17 -14 18 -13 12 3 -12 32 4 109 25 115 11 2 18
13 18 28 0 19 -5 24 -25 24 -14 0 -25 -4 -25 -10 0 -5 -17 -10 -39 -10 -38 0
-96 -33 -86 -49 19 -31 -92 -64 -116 -34 -7 7 -20 13 -31 13 -11 0 -33 8 -48
17 -25 14 -38 15 -97 6 -63 -10 -71 -9 -116 14 -52 26 -54 34 -10 38 99 9 124
17 139 48 27 50 61 77 135 105 57 20 76 33 95 62 13 20 38 46 54 59 37 26 38
39 5 51 -14 5 -25 14 -25 20 0 18 -26 11 -53 -14 -33 -31 -75 -40 -113 -25
-16 7 -37 14 -47 16 -25 4 -107 53 -107 63 0 9 -32 19 -83 27 -33 4 -39 2 -44
-16 -8 -31 -45 -36 -97 -12 -66 29 -76 57 -42 115 14 24 23 51 20 60 -6 16 61
86 84 86 6 0 12 5 12 10 0 16 43 29 62 19 14 -8 16 -6 11 7 -5 14 -3 14 16 2
14 -8 20 -20 17 -31 -2 -10 0 -17 6 -15 6 2 12 17 14 32 2 16 6 36 10 45 3 9
5 46 4 82 -1 49 3 69 14 78 24 20 19 37 -19 67 -25 19 -35 34 -35 54 0 23 6
29 39 38 21 7 45 12 54 12 8 0 18 7 21 15 5 13 -2 15 -44 9 -34 -4 -55 -3 -65
6 -8 7 -15 9 -16 4 0 -5 -6 7 -12 26 -9 24 -10 49 -4 81 9 45 8 47 -28 80 -20
19 -45 42 -55 53 -10 10 -24 15 -30 11 -7 -4 -18 2 -26 14 -8 12 -20 21 -26
21 -6 0 -19 6 -27 14 -9 7 -52 25 -96 41 -44 15 -108 41 -143 57 -66 31 -135
39 -202 24 -27 -6 -32 -5 -20 4 12 9 9 11 -18 7 -19 -2 -37 2 -43 10 -9 10 -7
13 10 13 11 0 21 5 21 10 0 13 -27 13 -70 -1 -60 -19 -108 -19 -115 -1 -3 8
-2 18 2 21 4 3 15 19 23 36 19 37 59 74 82 75 9 0 25 10 35 23 10 13 45 38 78
57 33 19 62 37 63 42 2 4 8 8 13 8 11 0 21 8 89 70 27 24 68 54 90 66 41 22
125 89 163 132 11 12 27 22 34 22 7 0 13 5 13 10 0 6 -6 10 -12 10 -7 0 10 14
37 32 28 17 52 35 53 39 2 5 10 9 18 9 8 0 18 8 21 17 8 19 65 73 97 89 27 15
89 16 80 2 -4 -6 1 -8 12 -6 11 1 27 18 36 37 20 41 38 61 38 43 0 -17 18 -15
37 4 12 11 13 18 4 27 -14 14 -15 61 -1 52 6 -4 8 -11 5 -16z m350 -46 l18
-28 -21 19 c-12 11 -22 23 -22 28 0 14 7 9 25 -19z m-31 -36 c25 -24 46 -49
46 -55 0 -6 10 -18 23 -28 15 -11 17 -15 4 -10 -15 5 -16 3 -7 -14 6 -11 8
-25 5 -30 -3 -6 -1 -10 4 -10 6 0 11 -4 11 -10 0 -16 -13 -12 -44 15 -16 14
-31 25 -32 25 -4 0 20 -44 54 -100 24 -39 28 -76 10 -83 -7 -3 0 -6 16 -6 27
-1 28 -3 23 -36 -3 -19 -2 -35 3 -35 10 0 43 -62 59 -113 7 -20 17 -35 22 -32
8 6 14 -23 10 -52 -3 -21 50 -124 60 -117 10 6 42 -60 53 -110 7 -27 6 -28
-10 -15 -15 12 -16 12 -10 -8 5 -16 2 -23 -14 -28 -30 -10 -57 18 -92 92 -15
34 -33 65 -38 68 -33 21 -110 213 -110 277 0 10 -6 18 -12 18 -9 0 -8 4 2 10
12 7 13 13 3 28 -9 15 -9 22 0 32 9 10 9 11 -1 6 -21 -12 -44 22 -45 68 -2 39
-4 43 -24 40 -23 -4 -35 8 -40 41 -4 24 -31 67 -49 78 -8 4 -19 18 -26 30 -13
25 -17 27 67 -39 46 -36 46 -21 0 18 -11 9 -17 19 -14 22 12 12 52 15 70 5 26
-13 24 -5 -11 46 -49 71 -35 76 34 12z m-826 4 c-15 -24 -55 -44 -63 -31 -3 5
5 12 19 16 14 3 30 12 37 20 17 20 21 17 7 -5z m897 -12 c11 -17 -1 -21 -15
-4 -8 9 -8 15 -2 15 6 0 14 -5 17 -11z m-751 -120 c-17 -3 -37 -10 -45 -14
-12 -7 -12 -6 -1 7 14 18 50 28 67 19 5 -3 -4 -8 -21 -12z m-4 -44 c0 -2 -13
-11 -29 -20 -21 -10 -32 -12 -37 -4 -3 6 -2 14 4 18 13 8 62 13 62 6z m-530
-821 c12 -12 9 -14 -22 -14 -38 0 -54 12 -43 30 8 13 44 4 65 -16z m110 -65
c0 -6 -9 -9 -20 -6 -11 3 -20 2 -20 -1 0 -4 -22 -5 -50 -4 -27 2 -48 7 -46 10
8 12 136 13 136 1z m1215 1 c-11 -5 -27 -9 -35 -9 -9 0 -8 4 5 9 11 5 27 9 35
9 9 0 8 -4 -5 -9z m125 -10 c-8 -5 -19 -10 -25 -10 -5 0 -3 5 5 10 8 5 20 10
25 10 6 0 3 -5 -5 -10z m-1780 -192 c0 -27 -16 -34 -62 -30 -39 3 -48 8 -48
23 0 16 8 19 55 19 37 0 55 -4 55 -12z m548 -79 c10 -15 10 -24 2 -34 -8 -10
-7 -14 2 -17 7 -3 -4 -5 -25 -6 -21 -1 -41 -4 -45 -6 -5 -3 -14 -1 -22 4 -9 5
-19 5 -26 -1 -8 -7 -14 -6 -19 1 -3 5 -1 10 5 10 6 0 32 16 57 35 25 19 49 35
52 35 3 0 12 -9 19 -21z m772 -34 c0 -8 -4 -15 -10 -15 -5 0 -7 7 -4 15 4 8 8
15 10 15 2 0 4 -7 4 -15z m-1416 -30 c6 -5 20 -12 31 -13 11 -2 21 -5 22 -5 0
-1 8 -41 16 -89 21 -122 79 -240 149 -303 l53 -48 -64 6 c-60 7 -97 22 -129
54 -8 7 -17 11 -22 8 -11 -7 -17 26 -10 55 3 14 3 40 -1 59 -4 19 -4 42 1 51
13 24 2 57 -21 63 -12 3 -22 21 -30 51 -6 25 -16 46 -21 46 -5 0 -6 5 -3 10 3
6 -2 10 -11 10 -16 0 -16 1 1 20 11 12 13 20 6 20 -9 0 -9 5 0 22 10 18 14 19
17 8 3 -8 10 -19 16 -25z m2082 -79 c1 -59 -2 -109 -6 -111 -4 -2 -24 5 -44
16 -21 11 -35 15 -32 10 4 -6 8 -36 10 -68 2 -32 6 -76 10 -98 6 -33 4 -45
-14 -67 -39 -50 -82 -63 -215 -63 -133 0 -183 15 -239 71 -43 43 -87 144 -93
214 -6 67 -5 68 53 44 22 -9 72 -25 113 -35 72 -19 75 -19 175 2 55 11 113 21
128 21 31 1 47 26 52 85 2 23 7 47 11 53 8 13 66 39 80 36 6 -2 10 -48 11
-110z m-709 64 c0 -35 -13 -40 -22 -9 -6 17 4 36 21 39 0 0 1 -13 1 -30z
m-1247 -11 c0 -16 45 -38 90 -44 25 -3 68 -12 95 -20 28 -8 114 -16 192 -19
79 -3 151 -9 160 -14 34 -18 156 20 151 46 -5 24 -37 40 -47 23 -5 -7 -15 -11
-22 -9 -9 3 -3 10 16 21 l30 16 -27 1 c-15 0 -30 5 -33 10 -8 14 74 13 114 -1
22 -8 29 -15 22 -23 -5 -6 -6 -18 -2 -25 6 -9 11 -10 15 -2 12 19 42 12 71
-15 25 -23 26 -28 15 -50 -8 -13 -21 -24 -30 -24 -31 0 -41 -24 -39 -90 5
-125 10 -110 -57 -160 -88 -68 -180 -95 -314 -95 -92 1 -113 4 -173 29 -93 39
-159 101 -201 190 -51 105 -77 284 -41 270 8 -4 15 -10 15 -15z m1350 -3 c0
-15 -18 -31 -26 -23 -7 7 7 37 17 37 5 0 9 -6 9 -14z m-383 -28 c-3 -8 -6 -5
-6 6 -1 11 2 17 5 13 3 -3 4 -12 1 -19z m326 -108 c3 -11 1 -20 -4 -20 -5 0
-9 9 -9 20 0 11 2 20 4 20 2 0 6 -9 9 -20z m-2386 -257 c-3 -10 -5 -4 -5 12 0
17 2 24 5 18 2 -7 2 -21 0 -30z m-10 -95 c-3 -8 -6 -5 -6 6 -1 11 2 17 5 13 3
-3 4 -12 1 -19z m1677 -57 c20 -19 29 -22 38 -13 27 27 33 12 30 -63 -5 -99 2
-122 51 -167 33 -32 41 -46 43 -78 2 -39 -7 -48 -41 -40 -5 2 -23 2 -40 1 -16
0 -58 7 -93 17 -50 14 -74 28 -113 67 -27 27 -49 52 -49 56 0 4 23 24 50 44
54 40 100 105 64 90 -11 -4 -28 -10 -39 -13 -11 -2 -25 -9 -30 -13 -17 -13
-95 -28 -95 -18 0 14 -28 11 -33 -3 -3 -10 -14 -8 -43 6 -21 11 -54 19 -71 19
-21 0 -33 5 -33 13 0 7 -14 21 -30 31 -33 19 -34 31 -4 47 10 6 22 15 25 19
14 19 81 26 231 24 151 -2 157 -3 182 -26z m-267 -403 c1 -14 8 -49 18 -83 7
-25 -2 -37 -37 -52 -25 -11 -29 -10 -46 15 -11 15 -18 32 -16 37 1 6 5 22 8
37 8 35 72 75 73 46z m500 -24 c-3 -3 -12 -4 -19 -1 -8 3 -5 6 6 6 11 1 17 -2
13 -5z m-317 -89 c6 -8 23 -16 38 -20 125 -27 158 -37 200 -61 23 -14 42 -29
42 -33 0 -16 -132 21 -161 46 -21 17 -69 4 -69 -18 0 -11 -4 -19 -10 -19 -21
0 -123 97 -115 110 8 13 63 9 75 -5z m603 -756 c-6 -6 -17 -8 -24 -3 -9 5 -8
9 7 14 23 9 31 3 17 -11z m1560 -534 c4 -8 2 -17 -3 -20 -6 -4 -10 3 -10 14 0
25 6 27 13 6z m-4027 -41 c-4 -9 -2 -22 2 -28 15 -18 32 -76 23 -76 -8 0 -19
24 -35 73 -5 17 2 47 11 47 3 0 2 -7 -1 -16z m3658 -299 c-26 -18 -29 -11 -7
14 10 12 19 17 21 11 2 -6 -4 -17 -14 -25z m-5 -41 c-7 -9 -13 -39 -13 -67 0
-50 0 -51 -12 -22 -22 51 -16 85 16 98 23 8 23 8 9 -9z m18 -86 c-3 -8 -6 -5
-6 6 -1 11 2 17 5 13 3 -3 4 -12 1 -19z m1 -40 c-1 -7 3 -35 9 -63 18 -78 21
-105 12 -105 -9 0 -11 6 -14 51 -1 14 -6 32 -10 39 -14 22 -18 90 -5 90 6 0
10 -6 8 -12z m-3199 -110 c42 -41 44 -40 23 12 -5 13 -4 13 12 1 11 -9 16 -24
13 -38 -3 -14 4 -30 19 -44 36 -34 29 -41 -13 -14 -46 30 -51 34 -85 75 -27
31 -35 50 -21 50 4 0 27 -19 52 -42z m3138 -30 c-3 -8 -6 -5 -6 6 -1 11 2 17
5 13 3 -3 4 -12 1 -19z m16 -38 c3 -11 1 -20 -4 -20 -5 0 -9 9 -9 20 0 11 2
20 4 20 2 0 6 -9 9 -20z m81 -75 c14 -132 16 -171 8 -183 -6 -9 -11 16 -16 68
-4 45 -7 85 -7 88 -3 19 2 85 5 81 2 -2 7 -26 10 -54z m-54 10 c0 -25 -18 -25
-22 -1 -4 17 -1 23 9 19 7 -3 13 -11 13 -18z m120 -110 c0 -14 -4 -25 -9 -25
-4 0 -6 11 -3 25 2 14 6 25 8 25 2 0 4 -11 4 -25z m-84 -67 c-4 -29 -11 -66
-16 -83 -4 -16 -12 -52 -16 -80 -3 -27 -9 -44 -11 -37 -10 27 30 252 44 252 3
0 3 -24 -1 -52z m4 -244 c-18 -52 -22 -35 -8 27 9 35 14 46 16 31 2 -12 -2
-38 -8 -58z m40 -24 c0 -11 -4 -20 -9 -20 -5 0 -7 9 -4 20 3 11 7 20 9 20 2 0
4 -9 4 -20z m-530 -29 c-16 -31 -32 -36 -18 -7 6 14 15 26 20 26 5 0 4 -9 -2
-19z m-4032 -46 c-2 -45 -18 -34 -18 11 0 20 4 33 10 29 5 -3 9 -21 8 -40z
m-28 -16 c0 -24 -4 -38 -10 -34 -5 3 -10 22 -10 41 0 19 5 34 10 34 6 0 10
-18 10 -41z m-3 -109 c4 -58 -13 -69 -19 -12 -5 38 1 77 10 68 2 -3 7 -28 9
-56z m4883 -45 c15 -18 40 -95 40 -124 0 -22 -19 -10 -41 26 -20 32 -23 34
-30 17 -6 -17 -8 -17 -19 8 -7 15 -10 38 -6 53 6 23 9 25 23 13 14 -11 15 -10
8 12 -16 51 -16 55 -4 35 6 -11 19 -29 29 -40z m155 -197 c-4 -13 -9 -32 -12
-43 -2 -11 -14 -40 -25 -64 -11 -24 -24 -71 -31 -105 l-11 -61 -8 40 c-10 43
8 155 24 155 5 0 8 6 6 13 -3 18 12 57 23 57 5 0 9 7 9 15 0 8 7 15 16 15 11
0 14 -6 9 -22z m-361 -310 c-4 -46 -10 -72 -12 -59 -5 31 8 155 15 147 3 -3 2
-42 -3 -88z m-8 -136 c-11 -10 -15 4 -8 28 l7 25 3 -23 c2 -13 1 -26 -2 -30z
m-125 -165 c-18 -18 -23 -1 -9 29 13 28 13 28 16 5 2 -13 -1 -28 -7 -34z m133
16 c-4 -21 -9 -42 -12 -48 -3 -5 -7 -20 -8 -33 -4 -32 -14 -41 -14 -13 0 17
-4 21 -15 17 -8 -3 -15 -1 -15 4 0 6 7 10 15 10 8 0 15 9 15 20 0 21 26 80 36
80 3 0 2 -17 -2 -37z m40 -168 c3 -11 10 -36 15 -55 6 -19 11 -48 11 -65 0
-22 -7 -12 -25 42 -25 74 -37 138 -26 148 5 6 14 -20 25 -70z m33 -2 c-3 -10
-5 -4 -5 12 0 17 2 24 5 18 2 -7 2 -21 0 -30z m-622 17 c3 -5 1 -10 -4 -10 -6
0 -11 5 -11 10 0 6 2 10 4 10 3 0 8 -4 11 -10z m5 -60 c6 -11 7 -20 2 -20 -6
0 -12 9 -15 20 -3 11 -3 20 -1 20 2 0 8 -9 14 -20z m530 -69 c0 -14 2 -14 10
-1 5 8 10 12 10 8 0 -3 3 -14 7 -24 4 -12 3 -15 -5 -10 -7 4 -12 1 -12 -8 0
-35 -20 -23 -32 21 -18 61 -12 97 8 57 8 -14 14 -34 14 -43z m-540 -21 c0 -5
-2 -10 -4 -10 -3 0 -8 5 -11 10 -3 6 -1 10 4 10 6 0 11 -4 11 -10z m-50 -76
c14 -15 19 -24 13 -20 -7 4 -13 2 -13 -4 0 -6 -13 5 -30 23 -16 19 -30 38 -30
41 0 12 34 -11 60 -40z m403 -116 c-6 -67 -17 -98 -34 -98 -6 0 -7 4 -4 10 3
5 8 29 11 52 3 23 9 48 15 54 5 6 6 14 3 17 -6 6 3 27 11 27 3 0 2 -28 -2 -62z
m-3916 30 c-3 -8 -6 -5 -6 6 -1 11 2 17 5 13 3 -3 4 -12 1 -19z m948 -8 c-3
-5 -13 -10 -21 -10 -8 0 -12 5 -9 10 3 6 13 10 21 10 8 0 12 -4 9 -10z m-948
-62 c-2 -13 -4 -5 -4 17 -1 22 1 32 4 23 2 -10 2 -28 0 -40z m85 4 c1 -23 -2
-45 -5 -49 -4 -3 -7 18 -7 47 0 62 9 63 12 2z m-72 -48 c0 -8 -4 -12 -10 -9
-5 3 -10 10 -10 16 0 5 5 9 10 9 6 0 10 -7 10 -16z m-3 -46 c-3 -8 -6 -5 -6 6
-1 11 2 17 5 13 3 -3 4 -12 1 -19z m272 -213 c-1 -29 -1 -29 -9 -5 -4 14 -8
34 -9 45 -1 16 1 17 9 5 5 -8 9 -28 9 -45z m-105 -190 c3 -8 1 -15 -4 -15 -6
0 -10 7 -10 15 0 8 2 15 4 15 2 0 6 -7 10 -15z"/>
<path d="M4364 7195 c-24 -18 -7 -19 26 0 16 9 19 14 9 15 -8 0 -24 -7 -35
-15z"/>
<path d="M4712 5338 c-29 -29 3 -83 33 -58 20 17 19 33 -3 53 -14 13 -21 14
-30 5z"/>
<path d="M4355 4370 c-3 -5 -1 -10 4 -10 6 0 11 5 11 10 0 6 -2 10 -4 10 -3 0
-8 -4 -11 -10z"/>
</g>
</svg>
