<svg width="202" height="238" viewBox="0 0 202 238" fill="none" xmlns="http://www.w3.org/2000/svg">
<path fill-rule="evenodd" clip-rule="evenodd" d="M202 185.107L178.06 226.025L10.9727 238.001L0 12.955L47.1533 11.745C47.2538 12.6087 47.3572 13.6225 47.4521 14.6561C47.6844 17.1834 47.8671 19.7884 47.8672 20.6024C47.8671 21.2632 47.6074 21.5446 47.2051 22.1718C46.7907 22.8177 46.3839 23.6457 46.3838 25.2264C46.3838 26.0907 46.6885 26.7699 47.1816 27.2723C47.6635 27.7632 48.2992 28.0602 48.9316 28.2323C49.5667 28.4051 50.2308 28.4602 50.8076 28.4462C51.3758 28.4323 51.9018 28.3503 52.2529 28.2177C53.1377 27.8832 53.4112 26.9262 53.3633 25.7841C53.3137 24.6049 52.9231 22.9717 52.1768 20.8563C51.6201 19.2784 51.5495 16.8445 51.7129 14.3807C51.7755 13.4363 51.8715 12.4992 51.9834 11.621L69.8232 11.163C70.1572 12.3714 70.4052 13.8914 70.3799 15.6688C70.3446 18.1479 69.8502 19.4048 69.3232 20.1718C69.0557 20.5611 68.7668 20.8447 68.4756 21.1161C68.1972 21.3755 67.8733 21.6604 67.6348 22.0077C67.3574 22.4115 67.2189 23.0226 67.2051 23.6434C67.191 24.2801 67.3059 25.0036 67.6084 25.6669C67.913 26.3345 68.4137 26.9527 69.1709 27.3387C69.9284 27.7249 70.8936 27.8535 72.0801 27.6337C74.4008 27.2035 75.8945 26.1206 76.623 24.619C77.3419 23.1371 77.2642 21.3512 76.6758 19.6044C76.1247 17.9682 75.4166 14.8314 74.9062 12.0751C74.8407 11.7208 74.7777 11.3739 74.7197 11.038L92.7676 10.5741C92.7807 10.8541 92.794 11.1413 92.8057 11.4335C92.9176 14.2356 92.958 17.459 92.8535 19.1844C92.7445 20.986 92.986 22.7098 93.7158 23.9872C94.4667 25.3013 95.7222 26.1119 97.499 26.0409C98.4225 26.004 99.1169 25.6425 99.5957 25.078C100.062 24.5287 100.292 23.8244 100.385 23.1395C100.478 22.4513 100.437 21.7431 100.324 21.1415C100.215 20.5581 100.024 20.0044 99.7666 19.6688C99.5389 19.3718 99.2586 19.1522 99.0264 18.9589C98.7852 18.7581 98.5453 18.5473 98.3008 18.2284C97.8112 17.5898 97.2535 16.4517 96.8096 14.0126C96.5735 12.7154 96.4666 11.5252 96.4375 10.4803L114.093 10.0272C114.114 10.2721 114.136 10.518 114.153 10.7645C114.344 13.4746 114.262 16.1553 113.61 17.8964C112.74 20.222 112.285 22.0155 112.228 23.3094C112.171 24.5782 112.501 25.5939 113.479 25.9423C113.873 26.0827 114.473 26.1723 115.129 26.1874C115.793 26.2026 116.557 26.142 117.286 25.955C118.011 25.7689 118.736 25.4488 119.286 24.9208C119.849 24.38 120.203 23.6435 120.203 22.6962C120.203 20.9608 119.731 20.0545 119.252 19.3505C118.783 18.662 118.473 18.3438 118.473 17.6083C118.473 16.7113 118.686 13.8465 118.957 11.0673C118.995 10.6733 119.038 10.2822 119.078 9.89929L133.195 9.53699C133.23 9.76497 133.266 9.99733 133.3 10.2333C133.702 13.0082 134.062 16.2086 134.107 17.9354C134.156 19.7544 134.607 21.4558 135.589 22.6434C136.595 23.8608 138.106 24.4749 140.096 24.1864C141.12 24.0378 141.864 23.6091 142.356 22.9979C142.842 22.3955 143.048 21.6611 143.09 20.954C143.132 20.2467 143.014 19.5369 142.821 18.9452C142.634 18.3709 142.355 17.8371 142.021 17.5341C141.729 17.2699 141.386 17.0906 141.097 16.9276C140.794 16.7574 140.491 16.5765 140.174 16.2889C139.544 15.7175 138.79 14.6617 138.039 12.2997C137.714 11.2754 137.495 10.3109 137.352 9.43054L154.228 8.99792C154.274 9.43336 154.322 9.88078 154.366 10.3319C154.637 13.1116 154.851 15.9774 154.851 16.8739C154.85 17.6091 154.54 17.9267 154.071 18.6151C153.592 19.3192 153.119 20.2255 153.119 21.9608C153.119 22.9081 153.474 23.6446 154.037 24.1854C154.587 24.7134 155.312 25.0335 156.037 25.2196C156.766 25.4066 157.53 25.4673 158.194 25.452C158.85 25.4369 159.45 25.3474 159.845 25.2069C160.822 24.8586 161.152 23.843 161.096 22.5741C161.038 21.2802 160.583 19.4866 159.713 17.161C159.061 15.42 158.979 12.7392 159.17 10.0292C159.197 9.64033 159.23 9.25264 159.268 8.86902L176.013 8.43933C176.053 8.83982 176.096 9.25158 176.134 9.66687C176.366 12.1941 176.549 14.7982 176.549 15.6122C176.549 16.2732 176.288 16.5543 175.886 17.1815C175.471 17.8275 175.065 18.6562 175.065 20.2372C175.065 21.1013 175.37 21.7797 175.863 22.2821C176.345 22.773 176.981 23.0699 177.613 23.2421C178.248 23.4148 178.912 23.471 179.489 23.4569C180.057 23.443 180.583 23.3601 180.935 23.2274C181.819 22.8929 182.093 21.9359 182.045 20.7938C181.995 19.6147 181.605 17.9815 180.858 15.8661C180.302 14.2882 180.231 11.8552 180.395 9.39148C180.418 9.0337 180.447 8.67699 180.479 8.3241L194.519 7.96472L202 185.107Z" fill="#FCF9F3"/>
<path d="M176.152 188.555L202 185.108L178.059 226.025L172.732 193.16C172.372 190.936 173.919 188.853 176.152 188.555Z" fill="#C3BEAE"/>
<path d="M20.8825 27.4492C20.2052 26.5766 18.9488 26.4183 18.0763 27.0955C17.2037 27.7728 17.0453 29.0292 17.7226 29.9018L19.3025 28.6755L20.8825 27.4492ZM44.7396 41.6493L46.4931 40.6874L46.4582 40.6239L46.4189 40.5631L44.7396 41.6493ZM19.3025 28.6755C17.7226 29.9018 17.7226 29.9018 17.7227 29.9019C17.7228 29.902 17.7229 29.9021 17.723 29.9023C17.7233 29.9027 17.7238 29.9033 17.7244 29.9041C17.7256 29.9056 17.7273 29.9079 17.7297 29.911C17.7344 29.9171 17.7415 29.9262 17.7509 29.9382C17.7696 29.9624 17.7975 29.9983 17.8341 30.0454C17.9073 30.1397 18.0154 30.279 18.1552 30.459C18.4349 30.8191 18.8412 31.3423 19.3481 31.9945C20.3619 33.2991 21.7781 35.1204 23.3874 37.1873C26.6054 41.3203 30.598 46.4382 33.691 50.3706L35.263 49.1342L36.835 47.8977C33.7484 43.9735 29.7608 38.862 26.5435 34.7299C24.9351 32.6642 23.5198 30.8439 22.5066 29.5401C21.9999 28.8882 21.5939 28.3654 21.3145 28.0056C21.1748 27.8257 21.0668 27.6866 20.9937 27.5925C20.9571 27.5454 20.9293 27.5096 20.9106 27.4855C20.9013 27.4735 20.8943 27.4644 20.8896 27.4583C20.8872 27.4553 20.8854 27.453 20.8842 27.4515C20.8837 27.4507 20.8832 27.4502 20.8829 27.4498C20.8828 27.4496 20.8827 27.4494 20.8826 27.4494C20.8825 27.4493 20.8825 27.4492 19.3025 28.6755ZM35.263 49.1342L33.691 50.3706C35.4206 52.5696 37.5394 54.2105 39.6613 55.1633C41.7285 56.0915 44.0681 56.4759 46.0631 55.6915C48.2726 54.8229 49.4787 52.766 49.517 50.1314C49.5533 47.6277 48.5723 44.4779 46.4931 40.6874L44.7396 41.6493L42.986 42.6112C44.9238 46.1436 45.5392 48.5731 45.5174 50.0734C45.4975 51.4428 44.9911 51.815 44.5996 51.9689C43.9937 52.2071 42.844 52.2076 41.2997 51.5142C39.8101 50.8454 38.1952 49.6271 36.835 47.8977L35.263 49.1342ZM44.7396 41.6493L46.4189 40.5631C42.0069 33.7415 35.8712 24.8468 30.206 17.2731C27.3745 13.4877 24.6447 10.011 22.2964 7.28066C21.1229 5.91619 20.0289 4.71974 19.0537 3.75726C18.1027 2.81865 17.1755 2.0126 16.3417 1.51209L15.3124 3.22687L14.2831 4.94165C14.6962 5.18964 15.3495 5.72151 16.2439 6.60423C17.1141 7.46307 18.1306 8.57134 19.2638 9.88895C21.5291 12.5228 24.1984 15.9197 27.003 19.669C32.6099 27.1649 38.6939 35.9845 43.0602 42.7354L44.7396 41.6493ZM15.3124 3.22687L16.3417 1.51209C13.4372 -0.231434 9.90739 -0.72403 7.10745 1.4198C4.42339 3.47492 3.15548 7.42457 3.33825 12.776L5.33709 12.7077L7.33592 12.6395C7.16925 7.75946 8.39515 5.47171 9.53919 4.59576C10.5673 3.80853 12.1999 3.69122 14.2831 4.94165L15.3124 3.22687Z" fill="black"/>
<path d="M43.8313 86.8922C43.256 86.9218 42.778 86.7647 42.3972 86.4211C42.0154 86.0562 41.8031 85.4583 41.7605 84.6274C41.7244 83.9244 41.8061 83.2259 42.0055 82.5321C42.2262 81.8372 42.514 81.203 42.8691 80.6293C43.2231 80.0344 43.5724 79.5572 43.9171 79.1977C44.4459 78.6792 44.9447 78.408 45.4134 78.3839C45.5839 78.3751 45.7357 78.4207 45.869 78.5207C46.0012 78.5994 46.0722 78.7346 46.0821 78.9263C46.0897 79.0755 46.0335 79.2279 45.9133 79.3836C45.8144 79.5382 45.6735 79.7056 45.4905 79.8859C45.0425 80.3148 44.7055 80.8234 44.4793 81.4118C44.2734 81.9778 44.1792 82.4312 44.1966 82.7721C44.2032 82.8999 44.2412 83.0154 44.3106 83.1187C44.4001 83.1995 44.5867 83.2968 44.8702 83.4104C45.1549 83.5453 45.3687 83.7586 45.5119 84.0503C45.6539 84.3207 45.732 84.5944 45.7462 84.8714C45.7714 85.3614 45.6132 85.8181 45.2718 86.2415C44.9293 86.6436 44.4491 86.8605 43.8313 86.8922ZM48.8487 86.6346C48.2521 86.6652 47.7634 86.5087 47.3827 86.1651C47.0008 85.8002 46.7886 85.2023 46.7459 84.3714C46.7099 83.6684 46.7915 82.9699 46.9909 82.2761C47.2116 81.5812 47.4995 80.947 47.8545 80.3733C48.2085 79.7784 48.5579 79.3012 48.9026 78.9417C49.4314 78.4232 49.9301 78.152 50.3988 78.1279C50.5693 78.1191 50.7212 78.1647 50.8545 78.2647C50.9867 78.3434 51.0577 78.4786 51.0675 78.6703C51.0752 78.8195 51.0189 78.9719 50.8987 79.1276C50.7998 79.2822 50.6589 79.4496 50.4759 79.6299C50.028 80.0588 49.7016 80.5669 49.4967 81.1541C49.2908 81.7201 49.1965 82.1735 49.214 82.5144C49.2206 82.6423 49.2586 82.7578 49.3279 82.861C49.4175 82.9419 49.5934 83.0397 49.8557 83.1544C50.1403 83.2893 50.3542 83.5026 50.4973 83.7943C50.6606 84.0636 50.7494 84.3368 50.7636 84.6137C50.7888 85.1037 50.6306 85.5605 50.2892 85.9839C49.9467 86.3859 49.4665 86.6029 48.8487 86.6346ZM57.0567 99.1261C56.5454 99.1524 56.1228 99.0352 55.789 98.7746C55.4552 98.5141 55.2665 97.9577 55.2228 97.1055C55.2009 96.6794 55.2151 96.1233 55.2653 95.4371C55.3156 94.751 55.3658 94.0648 55.4161 93.3787C55.5728 91.854 55.676 90.5349 55.7257 89.4216C55.7754 88.3082 55.7707 87.1763 55.7117 86.0258C55.6571 84.9606 55.5423 83.9731 55.3675 83.0636C55.214 82.1529 54.8859 81.3794 54.3833 80.743C54.1987 80.4748 54.1025 80.2661 54.0949 80.117C54.0817 79.8613 54.2066 79.5879 54.4693 79.2967C54.7523 78.9831 55.0913 78.72 55.4862 78.5075C55.9025 78.2939 56.2917 78.1778 56.6539 78.1592C57.3144 78.1252 57.7664 78.4011 58.0101 78.9867C58.274 79.5499 58.4283 80.2683 58.4731 81.1418C58.5004 81.6744 58.5024 82.3365 58.4789 83.1281C58.4554 83.9197 58.4202 84.6905 58.3732 85.4406C58.3465 86.1682 58.3115 86.7361 58.2684 87.1442C58.1772 88.281 58.1141 89.3417 58.0792 90.3261C58.0442 91.3105 58.0442 92.1436 58.0792 92.8254C58.1207 93.635 58.2303 94.3129 58.4078 94.8592C58.6067 95.4044 58.9178 95.8477 59.3412 96.1891C59.6313 96.4305 59.7845 96.711 59.8009 97.0306C59.8272 97.5419 59.5843 98.0137 59.0725 98.4458C58.5808 98.8556 57.9089 99.0823 57.0567 99.1261ZM67.0667 98.7082C65.7671 98.7749 64.8078 98.397 64.1888 97.5743C63.5901 96.7292 63.2557 95.6249 63.1857 94.2614C63.1606 93.7714 63.1573 93.2909 63.1759 92.82C63.2158 92.348 63.2556 91.876 63.2955 91.404C63.3354 90.932 63.3758 90.4707 63.4167 90.02C63.4577 89.5693 63.4891 89.1404 63.5109 88.7334C63.0701 88.8842 62.626 88.9711 62.1786 88.9941C61.7098 89.0182 61.4656 88.8385 61.446 88.455C61.4252 88.0502 61.5812 87.5508 61.9138 86.957C62.2454 86.3419 62.6628 85.733 63.1659 85.1304C63.6903 84.5267 64.209 84.0194 64.722 83.6086C65.2551 83.1753 65.7135 82.9489 66.097 82.9292C66.5657 82.9051 66.8208 83.2979 66.8623 84.1075C66.8733 84.3205 66.8634 84.5453 66.8328 84.7819C66.8225 84.996 66.802 85.2214 66.7714 85.4579C67.1718 85.3519 67.5728 85.2566 67.9743 85.1719C68.3972 85.0861 68.8003 85.0333 69.1838 85.0136C69.6738 84.9885 70.051 85.0545 70.3155 85.2118C70.6012 85.3681 70.7566 85.6912 70.7817 86.1812C70.808 86.6925 70.7064 87.2104 70.4769 87.7349C70.2688 88.2583 70.0156 88.5276 69.7173 88.5429C69.6534 88.5462 69.5463 88.541 69.3961 88.5274C69.2459 88.5137 69.0632 88.4911 68.8479 88.4594C68.5677 88.4097 68.2129 88.3638 67.7835 88.3218C67.3541 88.2798 66.8411 88.2741 66.2446 88.3047C66.1293 88.9728 66.0258 89.6617 65.934 90.3713C65.8625 91.0586 65.8409 91.6792 65.8693 92.2331C65.9327 93.4688 66.2848 94.2945 66.9257 94.7102C67.5665 95.1259 68.4728 95.3036 69.6445 95.2435C70.0067 95.2249 70.2657 95.2756 70.4214 95.3958C70.576 95.4947 70.6609 95.6933 70.6762 95.9915C70.7123 96.6946 70.3807 97.3098 69.6815 97.837C68.9822 98.3642 68.1106 98.6546 67.0667 98.7082ZM73.9774 85.3763C73.807 85.385 73.6562 85.3607 73.5251 85.3034C73.3929 85.2247 73.3213 85.0789 73.3104 84.8658C73.3017 84.6954 73.3467 84.5328 73.4456 84.3782C73.5658 84.2225 73.7174 84.0545 73.9004 83.8742C74.3472 83.4241 74.6742 82.9267 74.8812 82.382C75.0871 81.816 75.1819 81.3732 75.1655 81.0537C75.1568 80.8832 75.1076 80.7576 75.018 80.6767C74.9486 80.5735 74.7834 80.4752 74.5223 80.3818C74.2365 80.2255 74.012 80.0128 73.8487 79.7435C73.7066 79.4731 73.6285 79.1994 73.6143 78.9224C73.5892 78.4324 73.7478 77.9863 74.0904 77.5842C74.4531 77.1597 74.9327 76.9322 75.5293 76.9015C76.1258 76.8709 76.6145 77.0274 76.9952 77.371C77.376 77.7146 77.5883 78.3125 77.632 79.1647C77.667 79.8465 77.5741 80.5348 77.3534 81.2297C77.154 81.9235 76.8774 82.5679 76.5234 83.1628C76.1896 83.7353 75.8397 84.2019 75.4737 84.5625C75.2312 84.8313 74.9747 85.0367 74.7043 85.1787C74.4328 85.2995 74.1905 85.3653 73.9774 85.3763ZM81.9428 97.9443C81.1545 97.9848 80.4135 97.9054 79.7197 97.706C79.0259 97.5067 78.455 97.2049 78.0071 96.8007C77.5591 96.3964 77.3198 95.896 77.2892 95.2995C77.2728 94.9799 77.3321 94.6778 77.467 94.3932C77.6221 94.0862 77.8808 93.9233 78.243 93.9047C78.4347 93.8949 78.6399 93.9378 78.8584 94.0334C79.2528 94.2267 79.7532 94.404 80.3596 94.5651C80.9649 94.7049 81.5978 94.7578 82.2582 94.7239C83.0039 94.6856 83.6589 94.5452 84.2232 94.3026C84.7875 94.06 85.0599 93.747 85.0402 93.3635C85.0249 93.0652 84.7903 92.8636 84.3363 92.7588C83.9036 92.6528 83.1721 92.5515 82.1418 92.4549C81.4322 92.3632 80.7428 92.249 80.0736 92.1125C79.4044 91.976 78.8463 91.7163 78.3995 91.3333C77.9515 90.9291 77.7067 90.3222 77.6652 89.5126C77.6248 88.7243 77.799 87.957 78.188 87.2108C78.5971 86.4421 79.2259 85.7903 80.0743 85.2555C80.9226 84.7206 81.9753 84.4209 83.2323 84.3563C83.8928 84.3224 84.5358 84.3642 85.1613 84.4816C85.7868 84.599 86.3096 84.7964 86.7297 85.0739C87.1498 85.3514 87.3713 85.7139 87.3943 86.1613C87.414 86.5448 87.2935 86.9034 87.0329 87.2372C86.7937 87.5699 86.4984 87.8521 86.1471 88.0837C85.8161 88.293 85.5334 88.4036 85.299 88.4157C85.1286 88.4244 84.9202 88.3176 84.6738 88.0953C84.2963 87.8156 83.8811 87.634 83.4282 87.5505C82.9956 87.4445 82.5662 87.4025 82.1401 87.4244C81.5009 87.4572 80.9839 87.5799 80.5889 87.7924C80.2153 88.0038 80.0361 88.2587 80.0514 88.557C80.0656 88.8339 80.2369 89.0494 80.5652 89.2035C80.9148 89.3564 81.3368 89.4629 81.8312 89.523C82.3245 89.5617 82.7965 89.6016 83.2472 89.6425C84.4916 89.7495 85.487 89.9975 86.2332 90.3864C86.9784 90.754 87.3777 91.4598 87.4313 92.5037C87.4728 93.3133 87.28 94.1349 86.8528 94.9686C86.4458 95.7799 85.8187 96.4636 84.9714 97.0198C84.1455 97.5749 83.1359 97.8831 81.9428 97.9443ZM104.121 96.8055C102.651 96.881 101.448 96.5476 100.513 95.8052C99.5976 95.0405 99.1001 93.8805 99.0204 92.3252C98.9832 91.6008 99.043 90.8928 99.1998 90.2012C99.3778 89.5085 99.622 88.8551 99.9323 88.241C99.6023 88.4716 99.3522 88.5912 99.1817 88.6C98.926 88.6131 98.7378 88.4839 98.6171 88.2124C98.5166 87.9185 98.4592 87.6331 98.445 87.3561C98.4199 86.8661 98.4961 86.4777 98.6736 86.1909C98.8714 85.8817 99.0623 85.6476 99.2464 85.4886C99.6741 85.0821 100.356 84.6306 101.292 84.1339C102.226 83.616 103.365 83.3225 104.707 83.2536C106.539 83.1595 107.982 83.5981 109.036 84.5693C110.111 85.5395 110.696 86.9407 110.79 88.7729C110.863 90.2004 110.631 91.5153 110.095 92.7178C109.557 93.8989 108.774 94.8577 107.743 95.5941C106.734 96.3295 105.527 96.7333 104.121 96.8055ZM104.944 93.4949C106.009 93.4402 106.887 93.064 107.578 92.3664C108.288 91.6463 108.615 90.7324 108.559 89.6245C108.499 88.474 108.085 87.6729 107.314 87.2211C106.543 86.7694 105.667 86.5687 104.687 86.619C104.24 86.642 103.837 86.7054 103.48 86.8092C103.122 86.913 102.786 87.0371 102.473 87.1813C102.197 87.6227 101.955 88.1158 101.748 88.6605C101.541 89.2051 101.454 89.797 101.487 90.4362C101.541 91.5015 101.903 92.2947 102.57 92.8158C103.237 93.3156 104.028 93.542 104.944 93.4949ZM114.857 96.1901C114.623 96.2022 114.395 96.1391 114.174 96.0009C113.955 95.884 113.86 95.7073 113.891 95.4707C114.123 93.7499 114.301 92.0105 114.424 90.2525C114.568 88.4721 114.594 86.6871 114.502 84.8975C114.421 83.3209 114.295 81.8962 114.122 80.6233C113.95 79.3505 113.547 78.1429 112.911 77.0007C112.793 76.7718 112.697 76.5737 112.624 76.4066C112.552 76.2394 112.512 76.0813 112.504 75.9321C112.483 75.5273 112.697 75.1211 113.146 74.7136C113.595 74.306 114.086 74.0886 114.619 74.0612C115.386 74.0218 115.932 74.4637 116.257 75.387C116.582 76.3102 116.792 77.6879 116.886 79.5202C116.998 81.7146 116.969 83.6386 116.797 85.2923C116.625 86.9246 116.464 88.1718 116.316 89.0339L116.447 89.0912C116.82 88.0254 117.312 86.9961 117.923 86.0035C118.533 84.9895 119.248 84.1411 120.067 83.4582C120.908 82.7741 121.84 82.4059 122.863 82.3534C123.864 82.302 124.646 82.5608 125.209 83.13C125.794 83.6981 126.108 84.3977 126.15 85.2286C126.2 86.2086 125.894 87.1002 125.23 87.9033C124.566 88.7064 123.683 89.3926 122.58 89.9619C122.894 90.672 123.318 91.227 123.851 91.6269C124.383 92.0054 125.043 92.1745 125.832 92.134C126.087 92.1209 126.299 92.0886 126.467 92.0372C126.741 91.9591 126.893 92.2183 126.924 92.8149C126.941 93.1557 126.897 93.5425 126.791 93.9752C126.685 94.4079 126.449 94.7938 126.082 95.1331C125.735 95.45 125.188 95.6276 124.443 95.6659C123.441 95.7173 122.606 95.4718 121.938 94.9293C121.289 94.3645 120.762 93.6653 120.356 92.8317C119.97 91.9757 119.66 91.1265 119.424 90.2841C119.213 89.5046 119.458 89.0755 120.159 88.9967C120.901 88.8732 121.518 88.6172 122.01 88.2288C122.503 87.8404 122.734 87.3479 122.704 86.7513C122.669 86.0695 122.321 85.7456 121.66 85.7795C121.234 85.8014 120.806 85.9836 120.375 86.3262C119.964 86.6463 119.578 87.0293 119.216 87.4751C118.876 87.9198 118.599 88.3506 118.385 88.7674C118.094 89.3378 117.845 89.8953 117.638 90.4399C117.431 90.9846 117.267 91.5271 117.145 92.0674L117.21 93.3457C117.251 94.134 117.05 94.7958 116.607 95.3312C116.186 95.8655 115.603 96.1518 114.857 96.1901ZM133.431 95.3004C132.153 95.3661 131.1 95.025 130.271 94.2771C129.462 93.5069 129.02 92.3761 128.943 90.8848C128.889 89.8195 129.037 88.7545 129.388 87.6897C129.76 86.6026 130.318 85.6127 131.062 84.72C131.807 83.8273 132.72 83.0968 133.802 82.5286C134.883 81.9604 136.116 81.6407 137.501 81.5696C138.78 81.504 139.878 81.6719 140.795 82.0734C141.733 82.4524 142.222 83.0148 142.26 83.7605C142.27 83.9522 142.261 84.209 142.235 84.5308C142.208 84.8312 142.167 85.079 142.113 85.274C142.058 85.4477 141.97 85.6124 141.85 85.7681C141.75 85.9014 141.604 85.973 141.413 85.9829C141.327 85.9872 141.166 85.9635 140.928 85.9116C140.866 86.3634 140.825 86.8034 140.804 87.2317C140.783 87.66 140.784 88.0872 140.805 88.5133C140.847 89.3229 141.001 90.0413 141.268 90.6684C141.556 91.2731 142.066 91.6315 142.798 91.7434C142.991 91.7762 143.144 91.8324 143.255 91.9122C143.387 91.9908 143.46 92.1687 143.474 92.4456C143.486 92.68 143.438 92.9815 143.329 93.3503C143.241 93.718 143.034 94.0597 142.708 94.3755C142.403 94.6688 141.941 94.8314 141.323 94.8631C140.493 94.9058 139.838 94.6403 139.36 94.0668C138.881 93.4719 138.612 92.6098 138.555 91.4807C138.033 92.5542 137.342 93.4441 136.481 94.1505C135.641 94.8559 134.625 95.2391 133.431 95.3004ZM134.284 91.9243C135.136 91.8805 135.868 91.5759 136.48 91.0104C137.113 90.4439 137.59 89.7465 137.91 88.9183C138.119 88.395 138.271 87.8317 138.368 87.2286C138.465 86.6042 138.519 85.9926 138.531 85.3939C138.16 85.242 137.737 85.1249 137.263 85.0424C136.789 84.96 136.296 84.9319 135.785 84.9581C134.485 85.0249 133.429 85.4636 132.616 86.2744C131.824 87.084 131.458 88.0641 131.517 89.2146C131.561 90.0668 131.831 90.7472 132.327 91.2557C132.822 91.743 133.474 91.9658 134.284 91.9243ZM146.899 103.036C146.025 103.081 145.267 102.885 144.625 102.448C143.962 102.012 143.61 101.4 143.57 100.611C143.538 99.9936 143.703 99.4511 144.063 98.984C144.404 98.5393 144.851 98.3028 145.405 98.2743C145.66 98.2612 145.844 98.2945 145.954 98.3743C146.065 98.454 146.155 98.5455 146.225 98.6487C146.409 98.917 146.613 99.1415 146.836 99.3223C147.081 99.5233 147.396 99.614 147.779 99.5943C148.291 99.568 148.771 99.3618 149.222 98.9755C149.693 98.5881 150.119 98.1497 150.5 97.6602C150.841 97.2368 151.248 96.6285 151.72 95.8352C152.193 95.0633 152.661 94.1848 153.123 93.1998C152.675 93.6287 152.253 93.9388 151.857 94.13C151.462 94.3425 151.083 94.4581 150.721 94.4767C150.274 94.4997 149.829 94.3623 149.386 94.0646C148.943 93.7456 148.644 93.1308 148.49 92.2201C148.39 91.5203 148.223 90.7492 147.987 89.9069C147.773 89.0634 147.507 88.2546 147.19 87.4806C146.893 86.6841 146.538 86.0187 146.126 85.4845C145.964 85.2365 145.784 85.0535 145.585 84.9355C145.387 84.8175 145.106 84.7465 144.741 84.7225C144.485 84.7143 144.31 84.6485 144.219 84.525C144.148 84.4005 144.106 84.1997 144.092 83.9228C144.052 83.1558 144.234 82.527 144.636 82.0364C145.038 81.5458 145.601 81.2819 146.325 81.2447C147.199 81.1998 147.845 81.5085 148.263 82.1705C148.681 82.8113 149.052 83.6039 149.379 84.5485C149.505 84.9265 149.638 85.4323 149.777 86.066C149.936 86.6773 150.077 87.343 150.2 88.063C150.343 88.7819 150.453 89.4705 150.53 90.1288C150.575 90.5964 150.854 90.8171 151.365 90.7908C152.047 90.7558 152.686 90.5094 153.282 90.0515C153.878 89.5937 154.35 89.0141 154.698 88.3126C155.068 87.61 155.234 86.8859 155.196 86.1402C155.174 85.7141 155.101 85.3334 154.977 84.998C154.853 84.6625 154.657 84.3736 154.388 84.131C154.162 83.8863 153.981 83.6927 153.845 83.5501C153.709 83.3862 153.635 83.1977 153.624 82.9847C153.605 82.6225 153.758 82.2729 154.083 81.9358C154.407 81.5987 154.798 81.3116 155.256 81.0745C155.735 80.8363 156.156 80.7078 156.518 80.6893C157.157 80.6564 157.599 80.9435 157.844 81.5504C158.088 82.136 158.175 82.7937 158.106 83.5236C158.029 84.5315 157.834 85.7271 157.521 87.1103C157.207 88.4935 156.78 89.9467 156.238 91.4698C155.718 92.9918 155.1 94.4655 154.382 95.8908C153.687 97.3363 152.93 98.6035 152.11 99.6923C151.411 100.647 150.618 101.424 149.73 102.025C148.844 102.648 147.9 102.985 146.899 103.036ZM58.8551 137.18C57.5555 137.247 56.5962 136.869 55.9773 136.046C55.3785 135.201 55.0442 134.097 54.9742 132.733C54.9491 132.243 54.9458 131.763 54.9643 131.292C55.0042 130.82 55.0441 130.348 55.0839 129.876C55.1238 129.404 55.1642 128.942 55.2052 128.492C55.2462 128.041 55.2776 127.612 55.2994 127.205C54.8585 127.356 54.4144 127.443 53.967 127.466C53.4983 127.49 53.2541 127.31 53.2344 126.927C53.2137 126.522 53.3696 126.023 53.7023 125.429C54.0339 124.814 54.4512 124.205 54.9543 123.602C55.4788 122.998 55.9975 122.491 56.5104 122.08C57.0436 121.647 57.5019 121.421 57.8854 121.401C58.3541 121.377 58.6093 121.77 58.6508 122.579C58.6617 122.792 58.6519 123.017 58.6213 123.254C58.6109 123.468 58.5904 123.693 58.5599 123.93C58.9603 123.824 59.3613 123.728 59.7628 123.644C60.1856 123.558 60.5888 123.505 60.9723 123.485C61.4623 123.46 61.8395 123.526 62.1039 123.684C62.3896 123.84 62.545 124.163 62.5702 124.653C62.5964 125.164 62.4948 125.682 62.2654 126.207C62.0573 126.73 61.8041 126.999 61.5058 127.015C61.4419 127.018 61.3348 127.013 61.1846 126.999C61.0343 126.985 60.8516 126.963 60.6364 126.931C60.3561 126.881 60.0013 126.836 59.5719 126.794C59.1425 126.751 58.6296 126.746 58.033 126.776C57.9178 127.445 57.8143 128.133 57.7225 128.843C57.651 129.53 57.6294 130.151 57.6578 130.705C57.7212 131.941 58.0733 132.766 58.7141 133.182C59.3549 133.598 60.2612 133.775 61.433 133.715C61.7952 133.697 62.0541 133.747 62.2098 133.868C62.3644 133.966 62.4494 134.165 62.4647 134.463C62.5008 135.166 62.1692 135.781 61.4699 136.309C60.7707 136.836 59.8991 137.126 58.8551 137.18ZM69.9433 136.611C68.4732 136.686 67.2706 136.353 66.3353 135.61C65.4202 134.846 64.9228 133.686 64.843 132.13C64.8059 131.406 64.8657 130.698 65.0224 130.006C65.2005 129.314 65.4447 128.66 65.755 128.046C65.425 128.277 65.1748 128.396 65.0044 128.405C64.7487 128.418 64.5605 128.289 64.4398 128.017C64.3393 127.724 64.2819 127.438 64.2677 127.161C64.2425 126.671 64.3187 126.283 64.4963 125.996C64.694 125.687 64.8849 125.453 65.069 125.294C65.4968 124.887 66.1785 124.436 67.1143 123.939C68.049 123.421 69.1875 123.128 70.5297 123.059C72.362 122.965 73.805 123.403 74.8588 124.374C75.9339 125.345 76.5185 126.746 76.6125 128.578C76.6857 130.005 76.4541 131.32 75.9177 132.523C75.3802 133.704 74.5963 134.663 73.566 135.399C72.557 136.135 71.3494 136.538 69.9433 136.611ZM70.7667 133.3C71.832 133.245 72.7099 132.869 73.4004 132.171C74.1111 131.451 74.438 130.537 74.3812 129.43C74.3222 128.279 73.9072 127.478 73.1364 127.026C72.3656 126.574 71.4902 126.374 70.5101 126.424C70.0627 126.447 69.6601 126.51 69.3023 126.614C68.9445 126.718 68.609 126.842 68.296 126.986C68.0196 127.428 67.7779 127.921 67.5708 128.466C67.3638 129.01 67.2767 129.602 67.3095 130.241C67.3641 131.307 67.7252 132.1 68.3928 132.621C69.0593 133.121 69.8506 133.347 70.7667 133.3ZM92.748 135.44C91.4484 135.506 90.4891 135.128 89.8701 134.306C89.2714 133.461 88.937 132.356 88.867 130.993C88.8419 130.503 88.8386 130.022 88.8572 129.551C88.8971 129.079 88.9369 128.607 88.9768 128.135C89.0167 127.663 89.0571 127.202 89.098 126.751C89.139 126.301 89.1704 125.872 89.1922 125.465C88.7514 125.616 88.3073 125.702 87.8599 125.725C87.3911 125.75 87.1469 125.57 87.1273 125.186C87.1065 124.782 87.2625 124.282 87.5951 123.688C87.9267 123.073 88.3441 122.464 88.8472 121.862C89.3716 121.258 89.8903 120.751 90.4033 120.34C90.9364 119.907 91.3948 119.68 91.7783 119.661C92.247 119.636 92.5021 120.029 92.5436 120.839C92.5546 121.052 92.5447 121.277 92.5142 121.513C92.5038 121.727 92.4833 121.953 92.4527 122.189C92.8531 122.083 93.2541 121.988 93.6556 121.903C94.0785 121.817 94.4816 121.765 94.8651 121.745C95.3551 121.72 95.7323 121.786 95.9968 121.943C96.2825 122.099 96.4379 122.423 96.463 122.913C96.4893 123.424 96.3877 123.942 96.1582 124.466C95.9501 124.99 95.6969 125.259 95.3986 125.274C95.3347 125.278 95.2276 125.272 95.0774 125.259C94.9272 125.245 94.7445 125.222 94.5292 125.191C94.249 125.141 93.8942 125.095 93.4648 125.053C93.0354 125.011 92.5224 125.005 91.9259 125.036C91.8106 125.704 91.7071 126.393 91.6153 127.103C91.5438 127.79 91.5222 128.41 91.5507 128.964C91.614 130.2 91.9661 131.026 92.607 131.442C93.2478 131.857 94.1541 132.035 95.3258 131.975C95.688 131.956 95.947 132.007 96.1027 132.127C96.2573 132.226 96.3422 132.425 96.3575 132.723C96.3936 133.426 96.062 134.041 95.3628 134.568C94.6635 135.096 93.7919 135.386 92.748 135.44ZM102.562 134.936C101.284 135.001 100.23 134.66 99.4017 133.912C98.5932 133.142 98.1507 132.011 98.0742 130.52C98.0195 129.455 98.1678 128.39 98.5191 127.325C98.8905 126.238 99.4485 125.248 100.193 124.355C100.938 123.462 101.851 122.732 102.932 122.164C104.014 121.596 105.247 121.276 106.632 121.205C107.91 121.139 109.009 121.307 109.926 121.709C110.864 122.088 111.352 122.65 111.391 123.396C111.4 123.587 111.392 123.844 111.366 124.166C111.339 124.466 111.298 124.714 111.244 124.909C111.189 125.083 111.101 125.248 110.981 125.403C110.881 125.537 110.735 125.608 110.543 125.618C110.458 125.622 110.297 125.599 110.059 125.547C109.997 125.999 109.955 126.439 109.935 126.867C109.914 127.295 109.914 127.722 109.936 128.149C109.978 128.958 110.132 129.676 110.399 130.304C110.687 130.908 111.196 131.267 111.928 131.379C112.122 131.411 112.275 131.468 112.386 131.547C112.518 131.626 112.591 131.804 112.605 132.081C112.617 132.315 112.569 132.617 112.459 132.985C112.371 133.353 112.165 133.695 111.839 134.011C111.534 134.304 111.072 134.467 110.454 134.498C109.623 134.541 108.969 134.276 108.491 133.702C108.012 133.107 107.743 132.245 107.685 131.116C107.164 132.189 106.472 133.079 105.611 133.786C104.772 134.491 103.755 134.874 102.562 134.936ZM103.414 131.559C104.267 131.516 104.999 131.211 105.611 130.646C106.244 130.079 106.721 129.382 107.041 128.554C107.249 128.03 107.402 127.467 107.499 126.864C107.595 126.239 107.649 125.628 107.661 125.029C107.29 124.877 106.868 124.76 106.394 124.678C105.92 124.595 105.427 124.567 104.915 124.593C103.616 124.66 102.56 125.099 101.747 125.91C100.955 126.719 100.589 127.699 100.648 128.85C100.692 129.702 100.962 130.382 101.458 130.891C101.953 131.378 102.605 131.601 103.414 131.559ZM115.914 134.186C115.68 134.198 115.453 134.135 115.232 133.997C115.012 133.88 114.918 133.703 114.948 133.466C115.18 131.746 115.358 130.006 115.482 128.248C115.625 126.468 115.651 124.683 115.559 122.893C115.478 121.317 115.352 119.892 115.18 118.619C115.008 117.346 114.604 116.139 113.969 114.996C113.85 114.768 113.755 114.57 113.682 114.402C113.609 114.235 113.569 114.077 113.561 113.928C113.541 113.523 113.755 113.117 114.204 112.709C114.653 112.302 115.144 112.084 115.676 112.057C116.443 112.018 116.989 112.46 117.314 113.383C117.639 114.306 117.849 115.684 117.943 117.516C118.056 119.71 118.026 121.634 117.855 123.288C117.682 124.92 117.522 126.168 117.374 127.03L117.505 127.087C117.877 126.021 118.369 124.992 118.981 123.999C119.591 122.985 120.306 122.137 121.125 121.454C121.966 120.77 122.897 120.402 123.92 120.349C124.921 120.298 125.704 120.557 126.267 121.126C126.851 121.694 127.165 122.393 127.208 123.224C127.258 124.204 126.951 125.096 126.287 125.899C125.624 126.702 124.74 127.388 123.637 127.958C123.952 128.668 124.375 129.223 124.908 129.623C125.441 130.001 126.101 130.17 126.889 130.13C127.145 130.117 127.357 130.084 127.525 130.033C127.799 129.955 127.951 130.214 127.981 130.811C127.999 131.152 127.955 131.538 127.849 131.971C127.743 132.404 127.506 132.79 127.139 133.129C126.792 133.446 126.246 133.623 125.5 133.662C124.499 133.713 123.664 133.468 122.995 132.925C122.347 132.36 121.819 131.661 121.414 130.827C121.028 129.971 120.717 129.122 120.482 128.28C120.271 127.5 120.516 127.071 121.217 126.993C121.958 126.869 122.575 126.613 123.068 126.225C123.561 125.836 123.792 125.344 123.761 124.747C123.726 124.065 123.378 123.741 122.718 123.775C122.292 123.797 121.863 123.979 121.432 124.322C121.021 124.642 120.635 125.025 120.274 125.471C119.933 125.916 119.656 126.346 119.443 126.763C119.152 127.334 118.902 127.891 118.695 128.436C118.488 128.98 118.324 129.523 118.202 130.063L118.268 131.341C118.308 132.13 118.107 132.792 117.665 133.327C117.244 133.861 116.66 134.148 115.914 134.186ZM135.388 133.25C133.768 133.333 132.477 132.94 131.514 132.071C130.571 131.18 130.057 129.903 129.972 128.241C129.894 126.728 130.154 125.337 130.751 124.068C131.348 122.798 132.182 121.773 133.253 120.991C134.344 120.188 135.56 119.751 136.902 119.682C138.181 119.617 139.22 119.884 140.02 120.484C140.818 121.062 141.244 121.873 141.298 122.917C141.341 123.748 141.124 124.528 140.649 125.258C140.174 125.987 139.521 126.587 138.691 127.056C137.859 127.505 136.921 127.756 135.877 127.81C134.599 127.875 133.54 127.641 132.701 127.108C132.773 128.087 133.144 128.858 133.813 129.422C134.504 129.984 135.361 130.239 136.384 130.187C137.002 130.155 137.625 130.016 138.253 129.771C138.901 129.502 139.45 129.164 139.899 128.757C140.184 128.486 140.455 128.344 140.71 128.331C140.924 128.32 141.098 128.385 141.233 128.528C141.389 128.648 141.472 128.815 141.483 129.028C141.507 129.497 141.134 130.135 140.364 130.944C139.006 132.381 137.348 133.149 135.388 133.25ZM135.482 125.715C136.249 125.676 136.88 125.483 137.375 125.137C137.869 124.792 138.104 124.374 138.079 123.884C138.058 123.479 137.872 123.179 137.52 122.983C137.167 122.766 136.693 122.673 136.096 122.704C135.308 122.744 134.626 122.993 134.052 123.45C133.497 123.884 133.111 124.481 132.894 125.239C133.202 125.416 133.593 125.545 134.067 125.628C134.541 125.71 135.013 125.739 135.482 125.715ZM51.8131 175.592C50.5347 175.657 49.4812 175.316 48.6525 174.568C47.8439 173.798 47.4014 172.667 47.3249 171.176C47.2703 170.111 47.4186 169.046 47.7698 167.981C48.1413 166.894 48.6993 165.904 49.4438 165.011C50.1884 164.118 51.1015 163.388 52.1832 162.82C53.2648 162.252 54.4981 161.932 55.8829 161.861C57.1612 161.795 58.2593 161.963 59.177 162.365C60.115 162.744 60.6031 163.306 60.6414 164.052C60.6512 164.243 60.643 164.5 60.6168 164.822C60.5895 165.122 60.5488 165.37 60.4947 165.565C60.4396 165.739 60.3519 165.904 60.2317 166.059C60.1318 166.193 59.9859 166.264 59.7941 166.274C59.7089 166.278 59.5475 166.255 59.3099 166.203C59.2476 166.655 59.2061 167.095 59.1853 167.523C59.1646 167.951 59.1651 168.378 59.187 168.805C59.2285 169.614 59.3829 170.332 59.65 170.96C59.9374 171.564 60.4471 171.923 61.1791 172.035C61.373 172.067 61.5255 172.124 61.6364 172.203C61.7686 172.282 61.8418 172.46 61.856 172.737C61.868 172.971 61.8194 173.273 61.7101 173.642C61.6222 174.009 61.4154 174.351 61.0898 174.667C60.7845 174.96 60.3229 175.123 59.705 175.154C58.8741 175.197 58.2196 174.932 57.7416 174.358C57.2625 173.763 56.994 172.901 56.9361 171.772C56.4144 172.845 55.7231 173.735 54.8621 174.442C54.0225 175.147 53.0061 175.53 51.8131 175.592ZM52.6652 172.215C53.5174 172.172 54.2494 171.867 54.8613 171.302C55.4944 170.735 55.9713 170.038 56.2919 169.21C56.5001 168.686 56.6527 168.123 56.75 167.52C56.8461 166.895 56.9002 166.284 56.9122 165.685C56.5412 165.533 56.1187 165.416 55.6445 165.334C55.1703 165.251 54.6776 165.223 54.1663 165.249C52.8666 165.316 51.8104 165.755 50.9975 166.566C50.206 167.375 49.8397 168.355 49.8987 169.506C49.9424 170.358 50.2123 171.038 50.7084 171.547C51.2033 172.034 51.8556 172.257 52.6652 172.215ZM79.0232 174.194C78.2349 174.235 77.546 174.131 76.9566 173.884C76.3884 173.635 75.8804 173.309 75.4324 172.905C75.2379 173.278 74.9992 173.621 74.7163 173.935C74.4535 174.226 74.141 174.381 73.7788 174.4C73.5445 174.412 73.3169 174.349 73.0962 174.21C72.8766 174.093 72.7821 173.917 72.8127 173.68C73.0448 171.959 73.2226 170.22 73.346 168.462C73.4908 166.703 73.5167 164.918 73.4238 163.107C73.3462 161.594 73.2202 160.18 73.0459 158.865C72.8716 157.549 72.4791 156.352 71.8683 155.272C71.7509 155.065 71.6446 154.867 71.5496 154.68C71.4758 154.492 71.4346 154.312 71.4258 154.142C71.405 153.737 71.6192 153.331 72.0682 152.923C72.5173 152.515 73.0081 152.298 73.5407 152.271C74.3077 152.231 74.8537 152.673 75.1788 153.596C75.5039 154.52 75.7134 155.897 75.8074 157.73C75.8872 159.285 75.8859 160.716 75.8034 162.023C75.7411 163.308 75.6483 164.413 75.5249 165.338C76.0569 164.05 76.8124 162.954 77.7913 162.05C78.7905 161.122 79.9399 160.626 81.2395 160.559C82.5391 160.492 83.5735 160.877 84.3427 161.713C85.1321 162.527 85.5645 163.669 85.6399 165.139C85.6957 166.226 85.5799 167.3 85.2926 168.361C85.0042 169.401 84.5723 170.353 83.9971 171.215C83.4219 172.078 82.7101 172.777 81.8617 173.312C81.0346 173.845 80.0885 174.14 79.0232 174.194ZM79.5812 170.705C80.7956 170.643 81.7133 170.211 82.3344 169.41C82.9556 168.609 83.2404 167.708 83.189 166.707C83.1442 165.833 82.8648 165.175 82.3507 164.731C81.8569 164.265 81.2158 164.053 80.4275 164.093C79.6392 164.134 78.9487 164.415 78.356 164.936C77.7622 165.437 77.2724 166.092 76.8868 166.902C76.5 167.691 76.2124 168.539 76.024 169.446C76.538 169.889 77.0999 170.224 77.7096 170.449C78.3394 170.651 78.9633 170.737 79.5812 170.705ZM90.4608 173.543C90.12 173.56 89.8397 173.511 89.6201 173.394C89.4229 173.297 89.3491 173.109 89.3988 172.829C89.5862 171.9 89.7304 170.964 89.8315 170.019C89.9527 169.051 89.9909 168.131 89.9461 167.257C89.8882 166.128 89.7715 165.311 89.5962 164.808C89.441 164.282 89.2413 163.929 88.9971 163.749C88.7518 163.548 88.456 163.403 88.1097 163.314C87.9573 163.258 87.8144 163.18 87.6811 163.08C87.5691 162.979 87.5082 162.832 87.4984 162.641C87.4831 162.342 87.5833 162.006 87.7991 161.632C88.0149 161.258 88.3292 160.932 88.7422 160.654C89.1541 160.355 89.637 160.192 90.191 160.163C90.9154 160.126 91.4291 160.356 91.7323 160.853C92.0558 161.328 92.2382 161.97 92.2798 162.78C92.6195 161.908 93.0538 161.212 93.5826 160.694C94.1316 160.153 94.8322 159.861 95.6845 159.817C96.2597 159.788 96.7456 159.891 97.1422 160.127C97.5388 160.363 97.7519 160.768 97.7814 161.344C97.8109 161.919 97.6471 162.472 97.2898 163.003C96.9527 163.512 96.5925 163.776 96.209 163.795C96.1451 163.799 96.0699 163.792 95.9836 163.775C95.8973 163.758 95.82 163.709 95.7517 163.627C95.4573 163.3 95.1076 163.147 94.7028 163.168C94.085 163.2 93.5625 163.632 93.1353 164.466C92.7081 165.3 92.5098 166.431 92.5405 167.861C92.5891 168.392 92.6276 168.935 92.656 169.489C92.7058 170.042 92.7372 170.446 92.7503 170.702C92.7907 171.49 92.6004 172.151 92.1792 172.686C91.7793 173.219 91.2065 173.505 90.4608 173.543ZM103.769 172.924C102.15 173.007 100.859 172.614 99.8959 171.745C98.9529 170.853 98.4389 169.577 98.3536 167.915C98.276 166.402 98.5357 165.011 99.1328 163.741C99.7299 162.472 100.564 161.446 101.634 160.665C102.725 159.861 103.942 159.425 105.284 159.356C106.563 159.291 107.602 159.558 108.401 160.157C109.2 160.736 109.626 161.547 109.68 162.591C109.722 163.422 109.506 164.202 109.031 164.931C108.556 165.661 107.903 166.26 107.072 166.73C106.241 167.179 105.303 167.43 104.259 167.483C102.981 167.549 101.922 167.315 101.083 166.781C101.155 167.76 101.525 168.532 102.195 169.095C102.886 169.658 103.743 169.913 104.766 169.861C105.384 169.829 106.007 169.69 106.635 169.444C107.283 169.176 107.832 168.838 108.281 168.43C108.566 168.159 108.837 168.017 109.092 168.004C109.305 167.993 109.48 168.059 109.615 168.202C109.771 168.322 109.854 168.488 109.865 168.702C109.889 169.17 109.516 169.809 108.746 170.617C107.388 172.054 105.729 172.823 103.769 172.924ZM103.863 165.389C104.63 165.35 105.261 165.157 105.756 164.811C106.251 164.465 106.486 164.047 106.461 163.557C106.44 163.153 106.254 162.852 105.902 162.657C105.549 162.44 105.074 162.347 104.478 162.377C103.69 162.418 103.008 162.667 102.433 163.123C101.879 163.558 101.493 164.154 101.276 164.913C101.584 165.089 101.975 165.219 102.449 165.301C102.923 165.384 103.395 165.413 103.863 165.389ZM116.603 172.265C115.324 172.33 114.271 171.989 113.442 171.241C112.634 170.471 112.191 169.34 112.115 167.849C112.06 166.784 112.208 165.719 112.559 164.654C112.931 163.567 113.489 162.577 114.233 161.684C114.978 160.792 115.891 160.061 116.973 159.493C118.054 158.925 119.288 158.605 120.673 158.534C121.951 158.468 123.049 158.636 123.967 159.038C124.905 159.417 125.393 159.979 125.431 160.725C125.441 160.917 125.433 161.173 125.406 161.495C125.379 161.796 125.338 162.043 125.284 162.238C125.229 162.412 125.142 162.577 125.021 162.732C124.921 162.866 124.776 162.937 124.584 162.947C124.499 162.952 124.337 162.928 124.099 162.876C124.037 163.328 123.996 163.768 123.975 164.196C123.954 164.624 123.955 165.052 123.977 165.478C124.018 166.287 124.173 167.006 124.44 167.633C124.727 168.237 125.237 168.596 125.969 168.708C126.163 168.74 126.315 168.797 126.426 168.876C126.558 168.955 126.631 169.133 126.646 169.41C126.658 169.644 126.609 169.946 126.5 170.315C126.412 170.682 126.205 171.024 125.879 171.34C125.574 171.633 125.113 171.796 124.495 171.827C123.664 171.87 123.009 171.605 122.531 171.031C122.052 170.436 121.784 169.574 121.726 168.445C121.204 169.518 120.513 170.408 119.652 171.115C118.812 171.82 117.796 172.203 116.603 172.265ZM117.455 168.889C118.307 168.845 119.039 168.54 119.651 167.975C120.284 167.408 120.761 166.711 121.082 165.883C121.29 165.359 121.442 164.796 121.54 164.193C121.636 163.568 121.69 162.957 121.702 162.358C121.331 162.206 120.908 162.089 120.434 162.007C119.96 161.924 119.467 161.896 118.956 161.922C117.656 161.989 116.6 162.428 115.787 163.239C114.996 164.048 114.629 165.028 114.688 166.179C114.732 167.031 115.002 167.711 115.498 168.22C115.993 168.707 116.645 168.93 117.455 168.889ZM129.955 171.515C129.72 171.527 129.493 171.464 129.272 171.326C129.053 171.209 128.958 171.032 128.989 170.796C129.221 169.075 129.399 167.335 129.522 165.577C129.666 163.797 129.692 162.012 129.6 160.222C129.519 158.646 129.392 157.221 129.22 155.948C129.048 154.675 128.644 153.468 128.009 152.326C127.891 152.097 127.795 151.899 127.722 151.731C127.65 151.564 127.609 151.406 127.602 151.257C127.581 150.852 127.795 150.446 128.244 150.038C128.693 149.631 129.184 149.413 129.717 149.386C130.484 149.347 131.03 149.789 131.355 150.712C131.68 151.635 131.889 153.013 131.983 154.845C132.096 157.039 132.067 158.964 131.895 160.617C131.722 162.249 131.562 163.497 131.414 164.359L131.545 164.416C131.918 163.35 132.41 162.321 133.021 161.328C133.631 160.314 134.346 159.466 135.165 158.783C136.006 158.099 136.938 157.731 137.96 157.678C138.962 157.627 139.744 157.886 140.307 158.455C140.892 159.023 141.205 159.723 141.248 160.553C141.298 161.533 140.992 162.425 140.328 163.228C139.664 164.031 138.781 164.717 137.678 165.287C137.992 165.997 138.416 166.552 138.949 166.952C139.481 167.33 140.141 167.499 140.929 167.459C141.185 167.446 141.397 167.413 141.565 167.362C141.839 167.284 141.991 167.543 142.022 168.14C142.039 168.481 141.995 168.867 141.889 169.3C141.783 169.733 141.547 170.119 141.179 170.458C140.833 170.775 140.286 170.952 139.541 170.991C138.539 171.042 137.704 170.797 137.036 170.254C136.387 169.689 135.86 168.99 135.454 168.157C135.068 167.301 134.758 166.451 134.522 165.609C134.311 164.829 134.556 164.4 135.257 164.322C135.999 164.198 136.616 163.942 137.108 163.554C137.601 163.165 137.832 162.673 137.802 162.076C137.767 161.394 137.419 161.07 136.758 161.104C136.332 161.126 135.904 161.308 135.473 161.651C135.062 161.971 134.676 162.354 134.314 162.8C133.974 163.245 133.697 163.675 133.483 164.092C133.192 164.663 132.943 165.22 132.736 165.765C132.529 166.309 132.364 166.852 132.243 167.392L132.308 168.671C132.349 169.459 132.148 170.121 131.705 170.656C131.284 171.19 130.701 171.477 129.955 171.515ZM147.369 170.557C146.772 170.587 146.272 170.421 145.869 170.057C145.487 169.692 145.281 169.211 145.25 168.615C145.219 167.997 145.395 167.475 145.779 167.05C146.163 166.624 146.674 166.395 147.314 166.362C147.91 166.331 148.399 166.488 148.78 166.831C149.16 167.175 149.366 167.645 149.397 168.242C149.429 168.881 149.254 169.424 148.871 169.871C148.487 170.296 147.986 170.525 147.369 170.557ZM150.963 157.523C150.792 157.532 150.641 157.497 150.509 157.418C150.376 157.34 150.305 157.205 150.296 157.013C150.287 156.842 150.332 156.68 150.431 156.525C150.551 156.37 150.702 156.202 150.885 156.021C151.332 155.571 151.659 155.074 151.866 154.529C152.072 153.963 152.166 153.51 152.149 153.169C152.141 153.02 152.093 152.905 152.003 152.824C151.934 152.72 151.768 152.622 151.507 152.529C151.222 152.373 150.997 152.16 150.834 151.89C150.692 151.62 150.614 151.346 150.599 151.069C150.574 150.579 150.732 150.123 151.074 149.699C151.437 149.275 151.916 149.047 152.513 149.017C153.109 148.986 153.598 149.153 153.98 149.518C154.361 149.862 154.573 150.449 154.615 151.28C154.65 151.961 154.558 152.66 154.339 153.377C154.139 154.07 153.862 154.715 153.508 155.31C153.175 155.882 152.825 156.349 152.459 156.709C152.215 156.957 151.958 157.152 151.688 157.294C151.417 157.436 151.176 157.512 150.963 157.523ZM155.98 157.266C155.809 157.274 155.648 157.24 155.494 157.162C155.362 157.084 155.291 156.949 155.281 156.757C155.272 156.586 155.317 156.424 155.416 156.269C155.536 156.114 155.699 155.945 155.903 155.764C156.328 155.315 156.645 154.818 156.852 154.273C157.079 153.706 157.184 153.252 157.166 152.911C157.159 152.762 157.11 152.647 157.021 152.566C156.951 152.463 156.775 152.365 156.493 152.273C156.207 152.117 155.993 151.903 155.851 151.633C155.709 151.362 155.631 151.089 155.617 150.812C155.592 150.322 155.75 149.865 156.091 149.442C156.454 149.017 156.934 148.79 157.53 148.759C158.105 148.729 158.584 148.897 158.966 149.262C159.347 149.606 159.558 150.193 159.601 151.024C159.636 151.705 159.544 152.404 159.324 153.121C159.125 153.814 158.848 154.459 158.494 155.054C158.16 155.626 157.821 156.092 157.476 156.452C156.947 156.97 156.449 157.242 155.98 157.266Z" fill="#1A1A1A"/>
</svg>
